<?xml version="1.0" encoding="utf-8"?>
<!-- Generator: Adobe Illustrator 28.0.0, SVG Export Plug-In . SVG Version: 6.00 Build 0)  -->
<svg version="1.1" id="Layer_1" xmlns="http://www.w3.org/2000/svg" xmlns:xlink="http://www.w3.org/1999/xlink" x="0px" y="0px"
	 viewBox="0 0 1350.12 1406.92" style="enable-background:new 0 0 1350.12 1406.92;" xml:space="preserve">
<g>
	<path d="M623.26,704.91c-0.48-8.13-0.98-15.71-1.35-23.31c-0.61-12.48-1.29-24.96-1.54-37.44c-0.04-1.99,1.46-4.75,3.12-5.91
		c9.56-6.67,19.44-12.88,29.09-19.43c2.67-1.81,4.66-1.55,7.2,0.18c9.36,6.37,18.76,12.7,28.34,18.73c3,1.89,3.64,3.93,3.54,7.33
		c-0.59,18.98-0.85,37.97-1.2,56.95c-0.01,0.8,0.24,1.6,0.52,3.34c5.16-1.01,10.25-1.54,15.05-3.02
		c66.34-20.46,110.59-63.57,131.05-130c16.42-53.3,7.22-103.59-21.88-150.3c-11.14-17.89-24.26-34.58-37.01-51.42
		c-6.41-8.46-10.74-17.56-12.68-27.87c-0.3-1.58,0.49-3.36,0.78-5.04c1.53,0.38,3.26,0.42,4.57,1.18
		c22.69,13.18,41.48,30.87,56.6,52.07c45.12,63.26,55.64,132.12,27.58,204.67c-27.7,71.62-81.31,114.84-155.89,132.3
		c-3.34,0.78-7.78,0.52-9.71,2.6c-1.75,1.9-0.85,6.31-1,9.63c-1.98,45.1-3.96,90.2-5.88,135.31c-0.88,20.64-1.58,41.29-2.48,61.93
		c-0.13,3.05,0.62,5.12,2.97,7.32c12.9,12.05,13.89,35.67,1.13,48.93c-5.59,5.81-7.7,11.55-7.75,19.19
		c-0.06,9.48-1.18,18.95-1.57,28.44c-0.13,3.24-1.26,4.35-4.47,4.29c-8.83-0.17-17.67-0.23-26.49-0.02
		c-3.56,0.09-4.61-1.37-4.82-4.61c-0.75-11.97-1.76-23.92-2.47-35.9c-0.24-4-1.42-7.04-4.51-9.95
		c-14.71-13.81-15.11-35.07-1.57-51.32c1.61-1.94,2.79-5,2.7-7.49c-2.3-67.94-4.79-135.87-7.26-203.81
		c-0.04-0.98-0.22-1.96-0.32-2.84c-8.31-1.61-16.61-2.6-24.55-4.84c-64.38-18.19-111.4-57.44-139.16-118.28
		c-24.7-54.13-25.5-109.55-4.77-165.35c1.55-4.18,1.8-8.99,1.89-13.53c0.35-17.27,0.83-34.44,12.29-48.89
		c6.38-8.05,14.8-13.63,24.04-17.38c13.68-5.54,28.03-8.59,42.99-6.88c9.15,1.05,12.27,4.18,14.29,13.12
		c2.91,12.9-0.8,24.64-6.96,35.48c-10.2,17.94-23.18,33.49-42.81,41.82c-5.4,2.29-11.42,3.06-17.03,4.92
		c-1.52,0.51-3.09,2.24-3.73,3.79c-7.45,18-12.43,36.76-12.96,56.2c-2.13,78.24,31.49,136.85,98.7,176.32
		c15.87,9.32,32.97,15.92,51.38,18.55C620.26,704.79,621.26,704.78,623.26,704.91z"/>
	<path d="M578.59,358.32c9.63-4.22,17.93-9.14,26.91-11.55c31.07-8.33,62.55-9.25,93.85-1.3c10.58,2.69,20.68,7.29,30.96,11.14
		c2.77,1.04,3.73,2.66,0.88,5.04c-20.27,16.94-27.6,39.93-29.16,65.06c-1.84,29.74-2.86,59.53-3.83,89.32
		c-0.2,6.22-1.71,10.29-7.42,13.63c-10.33,6.04-20.12,13.02-30.02,19.78c-2.69,1.83-4.72,2.07-7.58,0.12
		c-11.56-7.87-23.39-15.35-34.91-23.27c-1.68-1.16-3.16-3.89-3.22-5.94c-0.83-25.63-1.08-51.29-2.14-76.91
		c-0.52-12.58-1.72-25.23-3.91-37.62c-3.12-17.69-12.7-31.91-26.47-43.35C581.52,361.67,580.73,360.61,578.59,358.32z"/>
	<path d="M476.75,153.83c16.92-0.74,17.13-0.64,21.87,15.79c15.6,54.08,31.14,108.18,46.79,162.25c0.8,2.76,0.09,3.69-2.27,5.39
		c-8.92,6.45-19.39,5.96-29.43,7.27c-1.28,0.17-3.37-1.64-4.24-3.06c-19.94-32.51-39.71-65.12-59.65-97.63
		c-7.92-12.91-16.35-25.51-24.15-38.49c-1.42-2.37-1.65-6.05-1.15-8.89C429.22,169.9,449.78,153.34,476.75,153.83z"/>
	<path d="M801.73,344.89c-9.86-6.99-19.29-13.81-28.87-20.4c-2.67-1.84-1.89-3.78-1.21-6.07c9.2-31.13,18.36-62.27,27.54-93.41
		c6.45-21.88,13.02-43.72,19.23-65.66c1.2-4.25,3.32-6.14,7.51-6.29c30.27-1.11,55.5,9.77,62.71,42.93
		c0.63,2.92,0.27,6.84-1.24,9.32c-27.92,45.95-56.09,91.76-84.21,137.59C802.76,343.59,802.23,344.22,801.73,344.89z"/>
	<path d="M947.44,273.95c-36.1,33.8-71.99,67.83-107.95,101.79c-4.69,4.43-5.09,4.29-9.39-0.53c-4.98-5.59-9.86-11.34-15.4-16.34
		c-3.31-2.99-3.06-5.13-1-8.4c7.91-12.53,15.66-25.16,23.48-37.75c20.29-32.68,40.66-65.3,60.75-98.09
		c2.59-4.23,5.25-4.66,9.46-3.42c12.05,3.53,22.75,9.48,32.08,17.76C948.84,237.29,960.82,260.49,947.44,273.95z"/>
	<path d="M497.04,347.95c-8.68,5.48-17.02,10.75-25.56,16.15c-3.25,2.05-7.47,1.67-10.29-0.94c-7.9-7.33-16.3-15.08-24.63-22.9
		c-24.29-22.8-48.58-45.59-72.7-68.57c-1.77-1.69-3.08-4.74-3.16-7.21c-0.84-23.68,11.86-38.55,32.15-48.23
		c4.36-2.08,8.84-3.9,13.27-5.8c4.15-1.78,7.07-0.84,9.54,3.27c11.49,19.12,23.22,38.1,34.86,57.13
		c14.68,24,29.37,47.99,44.01,72.01C495.61,344.67,496.4,346.65,497.04,347.95z"/>
	<path d="M860.41,419.35c-4.12-6.73-8.08-13.43-12.25-19.99c-5.68-8.92-7.62-6.86,1.71-15.49c35.45-32.78,70.94-65.53,106.24-98.47
		c3.8-3.54,6.66-3.97,10.68-0.8c11.85,9.36,23.11,19.09,28.25,34.07c3.28,9.56,2.15,19.06,0.22,28.58c-0.24,1.19-1.68,2.47-2.88,3.1
		c-43.3,22.81-86.64,45.56-129.98,68.3C861.82,418.96,861.17,419.09,860.41,419.35z"/>
	<path d="M449.58,414.86c-0.31,1.05-1.52,1.56-2.49,1.04c-14.98-7.91-29.38-15.52-43.78-23.13c-26.21-13.85-52.4-27.75-78.67-41.49
		c-3.62-1.89-5.77-4.14-6.84-8.32c-3.34-12.98-1.05-24.71,6.39-35.64c6.74-9.91,15.36-17.87,25.19-24.65
		c2.82-1.95,4.95-1.83,7.46,0.54c32.95,31.09,65.98,62.1,98.91,93.22c1.09,1.03,2.07,3.16,1.78,4.49
		c-2.29,10.69-4.89,21.31-7.41,31.95C449.98,413.5,449.8,414.11,449.58,414.86z"/>
	<path d="M437.54,460.59c-0.41,1.15-1.59,1.83-2.78,1.61c-21.4-4.04-42.95-8.1-64.5-12.16c-22.26-4.2-44.54-8.31-66.75-12.74
		c-2.18-0.43-4.75-2.4-5.81-4.37c-11.12-20.68-5.15-41.1,8.02-60.95c1.03-1.53,6.62-12.91,19.44-5.98
		c39.22,20.6,78.43,41.22,117.63,61.85c5.59,2.94,5.49,3.42,3.19,9.32C443.03,444.71,440.44,452.41,437.54,460.59z"/>
	<path d="M1016.67,432.5c-1.49,1.5-3.61,4.12-5.81,4.55c-43.32,8.31-86.7,16.32-130.02,24.59c-4.02,0.77-5.46-0.26-6.63-4.05
		c-2.21-7.13-4.79-14.19-7.8-21.01c-1.56-3.53-0.04-4.94,2.47-6.3c7.9-4.29,15.83-8.52,23.75-12.76
		c33.03-17.66,69.32-36.5,102.35-54.17C1005.66,364.94,1028.44,420.66,1016.67,432.5z"/>
	<path d="M310.07,523.86c-10.07,0.34-13.25-2.74-17.61-10.07c-7.85-13.19-7.91-27.31-4.34-41.57c1.56-6.21,4.46-12.09,6.88-18.07
		c1.6-3.97,4.58-4.4,8.54-3.6c21.87,4.39,43.78,8.56,65.67,12.8c20.1,3.89,40.18,7.93,60.33,11.52c4.56,0.81,4.95,2.56,4.46,6.6
		c-1.12,9.23-1.86,18.54-2.19,27.83c-0.14,3.89-1.31,5.18-5.08,5.46c-23.08,1.71-46.14,3.63-69.21,5.45
		C342.26,521.42,326.99,522.57,310.07,523.86z"/>
	<path d="M1027.1,485.71c0.06,13.08-2.89,23.9-10.29,33.41c-2.09,2.68-4.33,3.75-7.62,3.51c-16.93-1.2-33.88-2.27-50.82-3.44
		c-23.25-1.6-46.48-3.39-69.75-4.73c-5.15-0.3-6.58-1.89-6.72-7.04c-0.24-8.61-1.25-17.26-2.7-25.77c-0.81-4.78,0.35-6.61,5.04-7.46
		c30.47-5.49,60.9-11.17,91.34-16.79c11.78-2.17,23.55-4.48,35.38-6.39c1.8-0.29,4.97,0.66,5.67,1.99
		C1022.21,463.64,1027.57,474.43,1027.1,485.71z"/>
	<path d="M434.94,562.68c0.58,3.15,0.33,4.82-3.04,5.98c-35.59,12.25-71.1,24.68-106.72,36.84c-1.93,0.66-5.2,0.08-6.73-1.22
		c-20.11-17.13-23.54-42.55-15.97-65.62c0.32-0.98,2.09-2.02,3.26-2.12c35.03-2.83,70.07-5.54,105.1-8.28
		c5.15-0.4,10.29-0.91,15.42-1.35c3.81-0.32,5.6,7.57,6.66,16.23C433.86,550.75,434.24,558.94,434.94,562.68z"/>
	<path d="M996.52,602.41c-3.75,2.14-5.68,3.65-10.03,2.07c-33.98-12.29-68.09-24.21-102.17-36.24c-6.57-2.32-6.35-2.29-5.44-9.22
		c1.18-8.9,2.27-17.83,2.78-26.78c0.24-4.25,1.54-5.46,5.68-5.11c29.05,2.43,58.11,4.7,87.17,6.99c10.13,0.8,20.26,1.64,30.4,2.18
		c4.47,0.24,9.18,2.17,9.59,7.07C1016.25,549.8,1014.53,592.14,996.52,602.41z"/>
	<path d="M709.98,474.8c10.42-1.37,17.6,3.63,24.52,9.31c18,14.76,18.26,42.36-0.39,59.82c-5.93,5.55-12.12,10.99-18.86,15.47
		c-34.23,22.77-68.7,45.19-103.04,67.8c-8.34,5.49-13.8,21.81-10.8,31.32c1.73,5.49,5.66,8.81,10.45,11.52
		c1.27,0.72,2.97,2.15,3.01,3.31c0.27,7.76,0.14,15.53,0.14,23.63c-9.41,0.82-17.42-3.17-24.49-9.32
		c-19.31-16.81-19.87-36.19-10.26-59.43c3.25-7.87,8.82-13.42,15.86-18.02c35.42-23.1,70.72-46.37,106.08-69.56
		c8.09-5.31,13.81-12.44,16.65-21.71c2.25-7.36-0.29-13.23-5.85-18.28c-1.48-1.35-2.77-3.68-2.88-5.64
		C709.76,488.42,709.98,481.79,709.98,474.8z"/>
	<path d="M986.99,626.25c-1.14,22.41-10.78,40.14-30.48,52.13c-2.6,1.58-4.41,1.15-6.73-0.46c-24.33-16.93-48.72-33.77-73.09-50.63
		c-4.24-2.94-8.44-5.95-12.76-8.76c-2.36-1.54-2.64-2.81-1.48-5.65c3.94-9.64,7.46-19.47,10.77-29.35c1.17-3.49,2.55-4.57,6.1-3.3
		c34.62,12.43,69.25,24.84,103.95,37.06C988.21,619.02,986.52,622.7,986.99,626.25z"/>
	<path d="M437.88,580.46c4.61,12,9.12,23.4,13.22,34.95c0.42,1.19-1.17,3.87-2.54,4.82c-16.16,11.16-32.45,22.12-48.71,33.13
		c-11.99,8.11-24.06,16.11-35.95,24.38c-3.11,2.16-5.32,1.91-8.51,0.05c-20.54-11.92-28.67-30.54-29.41-53.3
		c-0.1-3.22,0.7-5.62,4.32-6.87c35.54-12.27,71.04-24.7,106.55-37.06C437.31,580.4,437.83,580.46,437.88,580.46z"/>
	<path d="M945.43,693.24c-2.57,10.85-6.64,20.11-13.44,27.88c-6.93,7.92-15.78,13.15-25.71,16.64c-3.18,1.12-5.47,0.79-7.97-1.81
		c-21.84-22.64-43.79-45.18-65.81-67.65c-2.32-2.36-2.46-3.94-0.47-6.72c7.07-9.87,13.88-19.92,20.56-30.05
		c1.93-2.93,3.39-3.33,6.29-1.26c27.61,19.77,55.3,39.41,82.93,59.15C943.27,690.46,944.34,692.07,945.43,693.24z"/>
	<path d="M383.8,724.33c-6.78-9.77-13.31-18.63-15.68-30.11c-0.3-1.45,0.74-3.99,1.98-4.84c28.01-19.22,56.16-38.23,84.19-57.4
		c3.5-2.4,5.45-1.69,7.66,1.64c6.45,9.69,13.09,19.25,19.77,28.78c1.79,2.55,1.44,4.48-0.65,6.57
		c-22.25,22.25-44.46,44.55-66.74,66.78C405.13,742.99,389.55,732.62,383.8,724.33z"/>
	<path d="M468.62,782.98c-16.65,0-41.35-19.02-45.25-33.11c-0.7-2.52,0.07-5.21,1.91-7.06c21.38-21.51,42.73-43.06,64-64.68
		c2.43-2.47,3.86-1.79,6.12,0.2c7.71,6.8,15.53,13.47,23.52,19.93c3.19,2.58,2,4.73,0.38,7.27c-11.14,17.57-22.25,35.16-33.37,52.74
		c-4.54,7.18-8.97,14.42-13.64,21.5C471.27,781.32,469.4,782.32,468.62,782.98z"/>
	<path d="M845.56,782.63c-0.55-0.43-2.4-1.29-3.34-2.74c-16.37-25.3-32.6-50.68-48.94-76c-1.72-2.66-1.25-4.2,1.15-6.24
		c7.96-6.79,15.76-13.77,23.42-20.9c2.32-2.16,3.79-1.89,5.79,0.16c22.12,22.62,44.3,45.17,66.34,67.86
		c1.11,1.15,1.77,3.73,1.32,5.25C886.96,764.61,862.52,782.43,845.56,782.63z"/>
	<path d="M614.02,787.93c0.58,13.47,1.03,26.95,1.82,40.4c0.22,3.68-1.02,5.27-4.39,6.49c-21.97,7.97-41.52,2.88-59.6-10.65
		c-2.55-1.91-3.21-4.13-2.11-7.37c9.1-26.78,18.06-53.61,26.99-80.45c1.29-3.87,3.01-4.56,7.06-3.06
		c7.12,2.64,14.51,4.69,21.95,6.26c4.52,0.96,6.47,2.63,6.58,7.47c0.31,13.64,1.12,27.27,1.74,40.9
		C614.05,787.93,614.04,787.93,614.02,787.93z"/>
	<path d="M699.58,787.72c0.5-13.97,1.1-27.94,1.41-41.91c0.08-3.7,1.41-4.95,5.02-5.85c8.05-1.99,16-4.52,23.78-7.38
		c3.53-1.29,4.99-0.21,5.99,2.77c9.11,27.12,18.25,54.23,27.2,81.4c0.5,1.53,0.07,4.18-0.99,5.27
		c-13.16,13.58-37.69,22.44-59.86,14.4c-3.41-1.24-4.45-3.31-4.29-6.81c0.66-13.96,1.11-27.93,1.63-41.9
		C699.51,787.72,699.54,787.72,699.58,787.72z"/>
	<path d="M374.64,1241.28c5.15-4.83,10.64-8.37,13.89-13.37c6.87-10.54,4.22-23.13-6.86-31.92c-8.83-7.01-18.89-12.44-28.09-19.02
		c-8.23-5.89-16.48-11.89-23.88-18.74c-7.13-6.6-11.07-15.37-11.83-25.24c-1.57-20.31,8.94-34.79,28.79-39.68
		c4.12-1.01,8.33-1.65,12.78-1.9c-6.78,3.77-11.05,9.25-12.95,16.48c-1.87,7.12-2.39,14.52,1.73,20.83
		c3.3,5.05,7.5,9.93,12.33,13.49c8.7,6.4,18.18,11.72,27.3,17.54c9.99,6.37,19.98,12.78,26.26,23.33
		c11.94,20.05,4.26,43.95-17.38,52.55C389.75,1238.41,382.07,1239.44,374.64,1241.28z"/>
	<path d="M528.95,714.37c2.24-3.45,6.75-4.61,10.38-2.68c8.31,4.43,16.33,8.7,24.37,12.97c3.29,1.75,2.28,4.39,1.44,6.93
		c-5.63,17.06-11.29,34.1-16.93,51.15c-2.92,8.84-6.03,17.63-8.65,26.56c-1.31,4.47-3.95,6-8.28,6.29
		c-10.52,2.02-39.84-13.04-47.34-25.2c-1.19-1.92-1.19-4.35,0.03-6.25C498.92,760.72,514.04,737.41,528.95,714.37z"/>
	<path d="M789.5,816.05c-11.72-0.01-12.05-0.27-15.52-10.2c-8.62-24.68-17.17-49.38-25.97-74c-1.49-4.15-0.33-5.57,3.41-7.42
		c8.32-4.11,16.39-8.79,24.3-13.67c3.04-1.87,5.01-2.24,6.99,0.93c15.82,25.26,31.67,50.49,47.4,75.81
		c0.71,1.14,1.01,3.58,0.32,4.38c-9.74,11.2-20.41,21.13-35.84,23.75C792.46,815.99,790.28,815.99,789.5,816.05z"/>
	<path d="M473.42,1240.08c-14.75,0-29.5,0-44.25,0c-0.38-0.29-0.76-0.58-1.14-0.87c11.04-4.62,9.2-13.85,9.21-22.35
		c0.05-34.81,0-69.62,0.04-104.43c0.01-8.07,0.88-16.39-9.18-20.54c0.36-0.3,0.72-0.6,1.08-0.89c14.76,0,29.53,0,44.29,0
		c-9.06,5.36-7.83,14.05-7.83,22.33c0.01,35.98,0.07,71.95-0.05,107.93c-0.02,7.33,0.64,14.07,8.58,17.76
		C473.93,1239.37,473.67,1239.72,473.42,1240.08z"/>
	<path d="M940.05,1090.97c14.75,0,29.5,0,44.25,0c-8.34,5.31-7.99,13.4-7.97,21.51c0.08,35.96,0.09,71.91-0.02,107.87
		c-0.02,7.62,0.45,14.76,8.12,19.58c-14.8,0-29.6,0-44.39,0c9.5-5.17,7.96-14.01,7.97-22.23c0.03-34.79,0.03-69.58,0.01-104.37
		c0-8.25,1.48-17.08-9.18-21.47C939.24,1091.56,939.65,1091.27,940.05,1090.97z"/>
	<path d="M695.21,1239.91c6.93-4.44,7.93-10.66,7.91-17.74c-0.13-35.81-0.04-71.61-0.07-107.42c-0.01-8.66,1.89-18.03-8.97-23.06
		c0.35-0.37,0.7-0.74,1.06-1.11c7.73,0,15.47,0.01,23.2,0c13.14-0.01,13.14-0.02,13.14,12.91c0,42.8,0,85.6,0,128.41
		c0,2.61,0,5.23,0,8.01C718.89,1239.91,707.05,1239.91,695.21,1239.91z"/>
	<path d="M574.68,1239c8.82-3.57,9.11-10.79,9.09-18.43c-0.11-36.98-0.14-73.96,0.02-110.95c0.03-7.43-0.9-13.99-8.23-18.46
		c14.83,0,29.66,0,44.5,0c-8.4,5.01-8.07,13.07-8.06,21.2c0.08,40.81-0.04,81.63,0.14,122.44c0.02,4.66-1.32,5.99-5.89,5.81
		c-8.65-0.34-17.32-0.08-25.98-0.11c-1.59,0-3.18-0.17-4.76-0.26C575.23,1239.83,574.96,1239.42,574.68,1239z"/>
	<path d="M819.41,1090.86c1.39-0.09,2.79-0.26,4.18-0.27c8.99-0.03,17.98,0.18,26.96-0.1c4.2-0.13,5.33,1.29,5.32,5.4
		c-0.13,40.78-0.07,81.57-0.07,122.35c0,8.13-1.2,16.72,9.21,20.94c-0.38,0.3-0.77,0.6-1.15,0.9c-14.8,0-29.59,0-44.39,0
		c-0.05-0.42-0.21-0.95-0.1-1.01c7.22-4.13,8.24-10.8,8.2-18.36c-0.18-35.79-0.12-71.58-0.09-107.37
		c0.01-8.33,1.15-17.01-9.15-21.53C818.69,1091.5,819.05,1091.18,819.41,1090.86z"/>
	<path d="M235.24,1089.65c2.8,6.22,5.15,11.27,7.36,16.39c17,39.26,33.98,78.54,50.94,117.82c2.52,5.84,6.25,10.56,11.9,13.67
		c0.79,0.43,1.43,1.13,3.12,2.5c-17.47,0-33.76,0-50.06,0c-0.05-0.35-0.24-0.82-0.1-0.94c7.71-7.19,7.88-7.98,3.51-18.01
		c-13.17-30.22-26.32-60.46-39.6-90.63c-1.53-3.46-1.76-6.41-0.19-9.95c3.64-8.22,6.85-16.63,10.27-24.94
		C233.05,1093.92,233.91,1092.37,235.24,1089.65z"/>
	<path d="M740.42,348.34c-57.07-25.6-113.09-25.11-170.09,0.05c2.28-5.54,4.55-11.09,6.86-16.62c0.38-0.92,7.35-15.65,20.51-18.72
		c42.14-11.51,83.93-10.89,125.42,2.81c2.15,0.71,4.35,2.9,5.43,4.96c3.4,6.47,6.33,13.19,9.31,19.87
		C738.84,342.87,739.4,345.24,740.42,348.34z"/>
	<path d="M1070.78,1091.58c24.79,2.44,56.47,28.98,56.88,73.28c0.42,44.28-31.37,72.4-57.86,74.96c1.29-0.87,2.02-1.46,2.84-1.91
		c13.32-7.26,20.27-18.51,20.38-33.63c0.18-25.65,0.12-51.31,0.05-76.96c-0.04-14.92-6.72-26.12-19.44-33.79
		C1072.85,1093.05,1072.12,1092.49,1070.78,1091.58z"/>
	<path d="M1051.12,1239.74c-26.78-2.49-58.36-31.31-57.56-75.59c0.8-45.02,33.41-70.79,57.03-72.57
		c-7.8,4.53-14.53,9.28-17.88,16.98c-2.22,5.09-4.53,10.67-4.62,16.06c-0.46,27.29-0.54,54.6-0.07,81.89
		c0.23,13.22,7.09,23.28,18.31,30.28C1047.68,1237.65,1049.04,1238.47,1051.12,1239.74z"/>
	<path d="M653.5,568.38c-6.76,4.75-12.68,9-18.74,13.06c-0.89,0.6-2.79,0.83-3.55,0.29c-18.99-13.36-40.18-23.76-55.77-41.7
		c-11.25-12.95-13.64-29.25-5.31-43.96c6.8-12,16.52-20.38,31.25-20.86c0.81-0.03,1.62,0.19,3.6,0.44c0,6.75,0.12,13.53-0.12,20.3
		c-0.04,1.16-1.47,2.46-2.55,3.35c-9.85,8.09-11.8,17.2-4.39,27.56c4.06,5.68,9.51,10.73,15.23,14.8
		C626.02,550.8,639.44,559.15,653.5,568.38z"/>
	<path d="M659.18,600.3c6.97-4.66,13.12-8.87,19.4-12.87c0.87-0.55,2.7-0.65,3.51-0.1c14.01,9.54,28.98,18.03,41.59,29.17
		c15.43,13.65,22.36,45.47,3.89,65.17c-8.1,8.65-17.84,14.11-30.79,15.63c0-8.62-0.13-16.73,0.15-24.82
		c0.04-1.15,1.97-2.48,3.28-3.32c12.63-8.06,14.86-18.45,7.8-31.64c-5.24-9.8-14.62-14.27-23.01-20.08
		C676.8,611.77,668.39,606.4,659.18,600.3z"/>
	<path d="M492.12,1143.96c1.84,2.74,3.33,4.86,4.7,7.04c13.81,22.01,27.63,44.01,41.39,66.04c5.64,9.03,10.75,18.55,21.78,22.9
		c-16.53,0-33.06,0-50.43,0c5.42-5.83,2.52-10.82-0.51-15.69c-10.73-17.26-21.44-34.53-32.37-51.66c-1.95-3.05-1.88-5.14,0.28-7.94
		C482.03,1158.11,486.77,1151.32,492.12,1143.96z"/>
	<path d="M881.88,1167.62c3.51-1.38,5.68-2.13,7.77-3.06c9.83-4.4,14.79-12.09,15-22.77c0.15-7.66,0.07-15.33,0.03-22.99
		c-0.07-13.69-5.84-21.6-18.94-26.07c-0.87-0.3-1.71-0.69-3.12-1.26c21.4-3.24,46.29,13.18,49.71,32.41
		c1.87,10.49-0.93,19.79-8.03,27.75C915.29,1161.73,897.32,1168.77,881.88,1167.62z"/>
	<path d="M799.04,1122.33c-6.02-14.89-17.52-24.1-31.71-30.52c0.12-0.41,0.25-0.82,0.37-1.24c4.71,0,9.42,0,14.14,0
		c4.98,0,9.97-0.15,14.93,0.1c1.29,0.06,3.58,1.34,3.6,2.11c0.25,9.71,0.16,19.42,0.16,29.13
		C800.04,1122.05,799.54,1122.19,799.04,1122.33z"/>
	<path d="M767.38,1239.07c14.2-6.44,26-15.39,31.75-30.69c0.39,0.15,0.78,0.29,1.17,0.44c0.12,2.53,0.32,5.07,0.33,7.6
		c0.04,6.65-0.03,13.3,0,19.95c0.01,2.19-0.14,3.94-3.07,3.92c-9.92-0.07-19.83-0.03-29.75-0.03
		C767.66,1239.87,767.52,1239.47,767.38,1239.07z"/>
	<path d="M386.76,1096.88c9.31,0.96,18.52,2.8,26.44-5.88c0,12.33,0,23.81,0,36.89C406.94,1114.41,397.75,1104.99,386.76,1096.88z"
		/>
	<path d="M347.31,1234.62c-9.71-1.52-19.15-3.41-27.52,5.47c0-12.5,0-23.92,0-35.34C326.41,1217.24,336.3,1226.36,347.31,1234.62z"
		/>
	<path d="M773.06,1148.66c0,11.19,0,22.4,0,33.52c-7.4-5.84-14.61-11.53-21.1-16.66C758.55,1160.25,765.66,1154.57,773.06,1148.66z"
		/>
	<path d="M511.42,1116.58c3.02-8.68,5.81-17.07-2.36-25.51c12.41,0,23.77,0,35.13,0C531.2,1097.04,520.65,1105.81,511.42,1116.58z"
		/>
	<path d="M649.91,1239.36c17.93-4.38,27.46-16.09,30.72-33.88c0.17,0.96,0.49,1.92,0.5,2.89c0.06,9.31,0.05,18.62,0.12,27.93
		c0.02,2.43-0.31,4.25-3.41,4.22c-9.13-0.07-18.25-0.03-27.38-0.03C650.28,1240.12,650.09,1239.74,649.91,1239.36z"/>
	<path d="M192.17,1214.9c0.07,9.54-0.74,19,10.71,25.14c-11.79,0-21.9,0-32.02,0C181.33,1234.64,186.89,1225.08,192.17,1214.9z"/>
</g>
<g>
	<path d="M713.93,229.51c-0.5,0-0.98-0.2-1.32-0.56l-8.75-9.21c-0.73-0.76-1.95-0.75-2.66,0.03l-8.99,9.93
		c-0.35,0.38-0.84,0.6-1.36,0.6l-18.32-0.18c-0.53-0.01-1.04,0.22-1.39,0.62l-9.43,10.86c-0.51,0.63-1.51,0.39-1.69-0.39
		l-6.22-25.52c-0.11-0.47-0.78-0.45-0.85,0.03l-5.02,33.86c-0.19,1.15-1.73,1.42-2.3,0.4l-11.02-19.43
		c-0.32-0.56-0.9-0.91-1.54-0.92l-12.52-0.23c-0.53-0.01-1.03-0.25-1.36-0.66l-3.63-4.39c-0.62-0.76-1.8-0.73-2.37,0.07l-3.13,4.9
		c-0.34,0.53-0.93,0.85-1.57,0.83l-22.07-0.5c19.55,22.98,43.54,41.73,49.27,45.85c10.54,7.58,16.97,12.55,19.16,14.26l0.42,0.33
		l0.42-0.33c2.19-1.72,8.62-6.69,19.16-14.26c5.75-4.13,29.86-22.98,49.45-46.06L713.93,229.51z"/>
	<path d="M732.89,126.73c-19.3-12.54-41.66-9.9-56.35-3.38c-12.62,5.6-19.56,14.05-21.27,16.32c-1.71-2.27-8.65-10.72-21.27-16.32
		c-14.69-6.52-37.05-9.16-56.35,3.38c-11.7,7.6-20.61,20.67-18.03,51.59c1.08,13,8.3,26.94,17.92,40.11l25.6,0.58
		c0.5,0.01,0.99-0.19,1.34-0.55l9.47-9.78c0.87-0.82,2.23-0.79,3.05,0.08l7.02,9.34c0.34,0.45,0.87,0.72,1.44,0.72l14.85,0.07
		c0.9,0,1.66-0.65,1.8-1.53l9.02-58.1c0.14-0.87,1.37-0.91,1.56-0.05l13.1,57.63c0.19,0.83,0.92,1.41,1.77,1.41h20.72
		c0.57,0,1.11-0.27,1.45-0.73l10.58-14.12c1.15-1.67,3.22-1.67,4.41-0.05l12.59,14.5c0.35,0.4,0.85,0.63,1.38,0.62l12.51-0.08
		c0.55,0,1.26,0.04,1.81,0.05c1.77-2.41,3.2-4.47,4.78-6.91c7.2-11.07,12.23-22.38,13.13-33.2
		C753.5,147.4,744.59,134.33,732.89,126.73z"/>
</g>
</svg>
