<svg xmlns="http://www.w3.org/2000/svg" xmlns:xlink="http://www.w3.org/1999/xlink" width="1751.81" height="509.6" viewBox="0 0 1751.81 509.6">
  <defs>
    <style>
      .a {
        fill: none;
      }

      .b {
        fill: #81c243;
      }

      .c {
        fill: #01643a;
      }

      .d {
        fill: #01a872;
      }

      .e {
        fill: #01a14d;
      }

      .f {
        clip-path: url(#a);
      }

      .g {
        fill: #282525;
      }
    </style>
    <clipPath id="a" transform="translate(-17.01 -16.85)">
      <rect class="a" width="1785.83" height="538.58"/>
    </clipPath>
  </defs>
  <title>Skrolli_2019</title>
  <polygon class="b" points="85.48 84.43 316.59 84.43 316.59 147.75 147.74 147.75 147.74 168.85 316.59 168.85 316.59 316.59 84.42 316.59 84.42 253.27 253.27 253.27 253.27 232.17 84.42 232.17 84.42 84.43 85.48 84.43"/>
  <path class="b" d="M862.31,101.28h231.11V333.44H861.25V101.28Zm62.26,168.84H1030.1V164.6H924.57Z" transform="translate(-17.01 -16.85)"/>
  <polygon class="b" points="1098.58 84.43 1160.84 84.43 1160.84 253.27 1329.69 253.27 1329.69 316.59 1097.52 316.59 1097.52 84.43 1098.58 84.43"/>
  <polygon class="b" points="1351.86 84.43 1414.12 84.43 1414.12 253.27 1582.96 253.27 1582.96 316.59 1350.8 316.59 1350.8 84.43 1351.86 84.43"/>
  <polygon class="b" points="1605.12 84.43 1667.39 84.43 1667.39 316.59 1604.07 316.59 1604.07 84.43 1605.12 84.43"/>
  <polyline class="b" points="506.55 84.43 506.55 84.43 569.87 84.43 569.87 143.48 514.99 198.29 514.99 202.58 569.87 257.5 569.87 316.59 506.55 316.59 506.55 265.94 472.78 232.17 401.02 232.17 401.02 316.59 337.7 316.59 337.7 84.43 401.02 84.43 401.02 168.85 472.84 168.85 506.55 135.3"/>
  <path class="b" d="M840.15,101.28V249H810.86l29.29,29.54v54.87H776.83V282.79L742.8,249H671.3v84.41H608V101.28ZM671.3,185.71H776.83V164.6H671.3Z" transform="translate(-17.01 -16.85)"/>
  <polygon class="c" points="988.82 168.85 928.67 168.85 928.67 232.17 991.99 232.17 991.99 168.85 988.82 168.85"/>
  <rect class="c" width="63.32" height="63.32"/>
  <rect class="c" x="84.43" width="63.32" height="63.32"/>
  <rect class="c" x="168.85" width="63.32" height="63.32"/>
  <rect class="c" x="253.28" width="63.32" height="63.32"/>
  <rect class="c" x="337.7" width="63.32" height="63.32"/>
  <rect class="c" x="422.12" width="63.32" height="63.32"/>
  <rect class="c" x="506.55" width="63.32" height="63.32"/>
  <rect class="c" x="590.97" width="63.32" height="63.32"/>
  <rect class="c" x="675.4" width="63.32" height="63.32"/>
  <rect class="c" x="759.82" width="63.32" height="63.32"/>
  <rect class="c" x="844.25" width="63.32" height="63.32"/>
  <rect class="c" x="928.67" width="63.32" height="63.32"/>
  <rect class="c" x="1013.1" width="63.32" height="63.32"/>
  <rect class="c" x="1097.52" width="63.32" height="63.32"/>
  <rect class="c" x="1181.95" width="63.32" height="63.32"/>
  <rect class="c" x="1266.37" width="63.32" height="63.32"/>
  <rect class="c" x="1350.8" width="63.32" height="63.32"/>
  <rect class="c" x="1435.22" width="63.32" height="63.32"/>
  <rect class="c" x="1519.65" width="63.32" height="63.32"/>
  <rect class="c" x="1604.07" width="63.32" height="63.32"/>
  <rect class="c" x="1688.5" width="63.31" height="63.32"/>
  <rect class="c" y="337.7" width="63.32" height="63.32"/>
  <rect class="c" x="84.43" y="337.7" width="63.32" height="63.32"/>
  <rect class="c" x="168.85" y="337.7" width="63.32" height="63.32"/>
  <rect class="c" x="253.28" y="337.7" width="63.32" height="63.32"/>
  <rect class="c" x="337.7" y="337.7" width="63.32" height="63.32"/>
  <rect class="c" x="422.12" y="337.7" width="63.32" height="63.32"/>
  <rect class="c" x="506.55" y="337.7" width="63.32" height="63.32"/>
  <rect class="c" x="590.97" y="337.7" width="63.32" height="63.32"/>
  <rect class="c" x="675.4" y="337.7" width="63.32" height="63.32"/>
  <rect class="c" x="759.82" y="337.7" width="63.32" height="63.32"/>
  <rect class="c" x="844.25" y="337.7" width="63.32" height="63.32"/>
  <rect class="c" x="928.67" y="337.7" width="63.32" height="63.32"/>
  <rect class="c" x="1013.1" y="337.7" width="63.32" height="63.32"/>
  <rect class="c" x="1097.52" y="337.7" width="63.32" height="63.32"/>
  <rect class="c" x="1181.95" y="337.7" width="63.32" height="63.32"/>
  <rect class="c" x="1266.37" y="337.7" width="63.32" height="63.32"/>
  <rect class="c" x="1350.8" y="337.7" width="63.32" height="63.32"/>
  <rect class="c" x="1435.22" y="337.7" width="63.32" height="63.32"/>
  <rect class="c" x="1519.65" y="337.7" width="63.32" height="63.32"/>
  <rect class="c" x="1604.07" y="337.7" width="63.32" height="63.32"/>
  <rect class="c" x="1688.5" y="337.7" width="63.31" height="63.32"/>
  <rect class="d" y="168.85" width="63.32" height="63.32"/>
  <rect class="d" x="928.67" y="168.85" width="63.32" height="63.32"/>
  <rect class="d" x="1181.95" y="168.85" width="63.32" height="63.32"/>
  <rect class="d" x="1266.37" y="168.85" width="63.32" height="63.32"/>
  <rect class="d" x="1435.22" y="168.85" width="63.32" height="63.32"/>
  <rect class="d" x="1519.65" y="168.85" width="63.32" height="63.32"/>
  <rect class="d" x="1688.5" y="168.85" width="63.31" height="63.32"/>
  <rect class="e" y="253.28" width="63.32" height="63.32"/>
  <rect class="e" x="1688.5" y="253.28" width="63.31" height="63.32"/>
  <rect class="e" y="84.43" width="63.32" height="63.32"/>
  <rect class="e" x="1266.37" y="84.43" width="63.32" height="63.32"/>
  <rect class="e" x="1435.22" y="84.43" width="63.32" height="63.32"/>
  <rect class="e" x="1519.65" y="84.43" width="63.32" height="63.32"/>
  <rect class="e" x="1688.5" y="84.43" width="63.31" height="63.32"/>
  <rect class="e" x="1181.95" y="84.43" width="63.32" height="63.32"/>
  <polygon class="e" points="485.44 125.92 485.44 84.43 422.12 84.43 422.12 147.75 463.62 147.75 485.44 125.92"/>
  <polygon class="e" points="485.44 275.1 485.44 316.6 422.12 316.6 422.12 253.28 463.62 253.28 485.44 275.1"/>
  <polygon class="e" points="738.72 275.1 738.72 316.6 675.4 316.6 675.4 253.28 716.89 253.28 738.72 275.1"/>
  <polygon class="d" points="569.87 227.18 569.87 172.99 542.77 200.09 569.87 227.18"/>
  <g class="f">
    <path class="g" d="M1766.57,526.45h-9v-70.8h9Zm-75.41-70.89h40.06v9.12h-15.47v61.68h-9.13V464.68h-15.46Zm-35.84,30.93V455.65h9.13v70.8h-9.13V495.62h-13.64v30.83h-9v-70.8h9v30.84ZM1607,455.65v9h-20.27v21.81H1607v9h-20.27v21.9H1607v9h-29.3v-70.8Zm-51.87,70.71h-30.84v-70.8h9v61.77h21.81Zm-88.19-24.6h9v4.52c0,4.13.77,7.11,2.21,8.93a4.46,4.46,0,0,0,1.73,1.35,8.09,8.09,0,0,0,3.94.77,6.91,6.91,0,0,0,6.53-3.84,15.69,15.69,0,0,0,1.25-6.73,9.55,9.55,0,0,0-2.79-7.2,19.84,19.84,0,0,0-5.86-3.46l-1.73-.77a27,27,0,0,1-8.55-5.29,19,19,0,0,1-5.76-14.21c0-6.06,1.63-11.15,4.71-14.7a15.77,15.77,0,0,1,12.2-5.57c6.91,0,10.76,3,12.77,5.57,2.79,3.55,4.13,8.45,4.13,14.7v4.51h-9.12v-4.51c0-5.48-1.25-8.46-2.88-9.8a7.33,7.33,0,0,0-4.9-1.35,6.64,6.64,0,0,0-6.63,4.52,16.63,16.63,0,0,0-1.25,6.63,10,10,0,0,0,2.79,7.3,16.2,16.2,0,0,0,6.14,3.84l1.54.67a24.72,24.72,0,0,1,8.36,5,18.41,18.41,0,0,1,6,14.12c0,10.86-6,19.6-16.9,19.6-11.24,0-16.91-7.4-16.91-20.08Zm-26.71,24.69h-9v-70.8h9Zm-61-20.27c0,5.67,1.25,8.36,2.88,9.71a7.26,7.26,0,0,0,4.9,1.44,7.52,7.52,0,0,0,4.9-1.44c1.63-1.35,2.88-4,2.88-9.71V475.73c0-5.48-1.25-8.36-2.88-9.7a7.32,7.32,0,0,0-4.9-1.35,7.09,7.09,0,0,0-4.9,1.35c-1.63,1.34-2.88,4.22-2.88,9.7Zm-9-30.45c0-6.24,1.34-11.14,4-14.6a15.82,15.82,0,0,1,4.62-3.75,17.75,17.75,0,0,1,8.16-1.82c6.92,0,10.76,3,12.78,5.57,2.69,3.46,4,8.36,4,14.6v30.45c0,6.25-1.34,11.15-4,14.61-2,2.59-5.86,5.57-12.78,5.57s-10.76-3-12.78-5.57c-2.69-3.46-4-8.36-4-14.61Zm-43.81,13,20.85,37.66h-10.37l-16.14-29-3.75,5.86v23.15h-9V500.71h-.1l.1-.19v-45h9v30.93l20.08-30.93h10.85Zm-45.24,37.75h-9v-70.8h9ZM1219,487h5.67a10.83,10.83,0,0,0,5.09-.86,12,12,0,0,0,1.73-1.35c1.44-1.82,2.11-4.8,2.11-9,0-4.71-.76-7.49-2.21-9.13s-3.74-1.92-6.72-1.92H1219Zm23.83,39.39h-9.13V505.42c0-6.25-3-9.32-9-9.32H1219v30.26h-9v-70.8h14.7c12.2,0,18,7,18,20.17,0,6.53-1.44,11.53-4.22,14.89a2.24,2.24,0,0,0-.39.48,2.42,2.42,0,0,1-.57.48c3.46,3.36,5.38,8,5.38,13.84Zm-58.51-70.71v9H1164v21.81h20.27v9H1164v21.9h20.27v9H1155v-70.8Zm-111.82,70.71-17.29-42.85v42.85h-9v-70.8h7.59l17.29,42.84V455.56h9.13v70.8Zm-53,.09h-9v-70.8h9ZM957.31,487H963a10.83,10.83,0,0,0,5.09-.86,12.57,12.57,0,0,0,1.73-1.35c1.44-1.82,2.11-4.8,2.11-9,0-4.71-.77-7.49-2.21-9.13s-3.75-1.92-6.72-1.92h-5.67Zm23.82,39.39H972V505.42c0-6.25-3-9.32-9-9.32h-5.67v30.26h-9v-70.8H963c12.2,0,18,7,18,20.17,0,6.53-1.44,11.53-4.23,14.89a2.23,2.23,0,0,0-.38.48,2.46,2.46,0,0,1-.58.48c3.46,3.36,5.38,8,5.38,13.84Zm-91-70.8h9v52c0,4.9,1,7.4,2.49,8.55a8.11,8.11,0,0,0,8.65,0c1.44-1.15,2.5-3.65,2.5-8.55v-52h9v52c0,5.86-1.25,10.37-3.84,13.54-1.93,2.6-5.58,5.29-12,5.29s-10.09-2.69-12-5.29c-2.59-3.17-3.84-7.68-3.84-13.54Zm-58.12,0h9v52c0,4.9,1,7.4,2.49,8.55a8.11,8.11,0,0,0,8.65,0c1.44-1.15,2.5-3.65,2.5-8.55v-52h9v52c0,5.86-1.25,10.37-3.84,13.54-1.93,2.6-5.58,5.29-12,5.29s-10.09-2.69-12-5.29c-2.6-3.17-3.84-7.68-3.84-13.54Zm-63.5,0H808.6v9.12H793.13v61.68H784V464.68H768.54Zm-63.5,0H745.1v9.12H729.63v61.68H720.5V464.68H705Zm-22.58,70.8H651.62v-70.8h9v61.77h21.81Zm-89-70.8h9v52c0,4.9,1.06,7.4,2.5,8.55a8.11,8.11,0,0,0,8.65,0c1.44-1.15,2.49-3.65,2.49-8.55v-52h9v52c0,5.86-1.24,10.37-3.84,13.54-1.92,2.6-5.57,5.29-12,5.29s-10.08-2.69-12-5.29c-2.6-3.17-3.85-7.68-3.85-13.54ZM549.7,488.7l20.84,37.66H560.17l-16.14-29-3.75,5.86v23.15h-9V500.71h-.09l.09-.19v-45h9v30.93l20.08-30.93h10.86Zm-44.19-33.05v9H485.24v21.81h20.27v9H485.24v21.9h20.27v9h-29.3v-70.8Zm-63,70.71L425.2,483.51v42.85h-9v-70.8h7.59l17.3,42.84V455.56h9.12v70.8Zm-75.42-20.18c0,5.67,1.25,8.36,2.89,9.71a7.24,7.24,0,0,0,4.9,1.44,7.55,7.55,0,0,0,4.9-1.44c1.63-1.35,2.88-4,2.88-9.71V475.73c0-5.48-1.25-8.36-2.88-9.7a7.35,7.35,0,0,0-4.9-1.35A7.08,7.08,0,0,0,370,466c-1.64,1.34-2.89,4.22-2.89,9.7Zm-9-30.45c0-6.24,1.35-11.14,4-14.6a15.9,15.9,0,0,1,4.61-3.75,17.8,17.8,0,0,1,8.17-1.82c6.91,0,10.76,3,12.77,5.57,2.69,3.46,4,8.36,4,14.6v30.45c0,6.25-1.35,11.15-4,14.61-2,2.59-5.86,5.57-12.77,5.57s-10.76-3-12.78-5.57c-2.69-3.46-4-8.36-4-14.61Zm-43.8,13,20.85,37.66H324.71l-16.14-29-3.75,5.86v23.15h-9V500.71h-.09l.09-.19v-45h9v30.93l20.08-30.93h10.86Zm-67.63,17.48c0,5.67,1.25,8.36,2.88,9.71a7.24,7.24,0,0,0,4.9,1.44,7.53,7.53,0,0,0,4.9-1.44c1.63-1.35,2.88-4,2.88-9.71V475.73c0-5.48-1.25-8.36-2.88-9.7a7.33,7.33,0,0,0-4.9-1.35,7.08,7.08,0,0,0-4.9,1.35c-1.63,1.34-2.88,4.22-2.88,9.7Zm-9-30.45c0-6.24,1.34-11.14,4-14.6a15.9,15.9,0,0,1,4.61-3.75,17.83,17.83,0,0,1,8.17-1.82c6.92,0,10.76,3,12.78,5.57,2.69,3.46,4,8.36,4,14.6v30.45c0,6.25-1.34,11.15-4,14.61-2,2.59-5.86,5.57-12.78,5.57s-10.76-3-12.78-5.57c-2.69-3.46-4-8.36-4-14.61Zm-63.5-20.17h40.06v9.12H198.67v61.68h-9.13V464.68H174.08Zm-25.65.09v9H128.16v21.81h20.27v9H128.16v21.9h20.27v9h-29.3v-70.8Zm-56,70.8h-9v-70.8h9ZM17,455.56H57.07v9.12H41.6v61.68H32.47V464.68H17Z" transform="translate(-17.01 -16.85)"/>
  </g>
</svg>
