<?xml version="1.0" encoding="UTF-8" standalone="no"?>
<!-- Created with Inkscape (http://www.inkscape.org/) -->

<svg
   xmlns:dc="http://purl.org/dc/elements/1.1/"
   xmlns:cc="http://creativecommons.org/ns#"
   xmlns:rdf="http://www.w3.org/1999/02/22-rdf-syntax-ns#"
   xmlns:svg="http://www.w3.org/2000/svg"
   xmlns="http://www.w3.org/2000/svg"
   xmlns:sodipodi="http://sodipodi.sourceforge.net/DTD/sodipodi-0.dtd"
   xmlns:inkscape="http://www.inkscape.org/namespaces/inkscape"
   id="svg4698"
   version="1.1"
   inkscape:version="0.91 r13725"
   xml:space="preserve"
   width="765"
   height="990"
   viewBox="0 0 765 990"
   sodipodi:docname="Tradelogo_vektori.svg"><metadata
     id="metadata4704"><rdf:RDF><cc:Work
         rdf:about=""><dc:format>image/svg+xml</dc:format><dc:type
           rdf:resource="http://purl.org/dc/dcmitype/StillImage" /></cc:Work></rdf:RDF></metadata><defs
     id="defs4702"><clipPath
       clipPathUnits="userSpaceOnUse"
       id="clipPath4720"><path
         d="M 0,792 612,792 612,0 0,0 0,792 Z"
         id="path4722"
         inkscape:connector-curvature="0" /></clipPath></defs><sodipodi:namedview
     pagecolor="#ffffff"
     bordercolor="#666666"
     borderopacity="1"
     objecttolerance="10"
     gridtolerance="10"
     guidetolerance="10"
     inkscape:pageopacity="0"
     inkscape:pageshadow="2"
     inkscape:window-width="1536"
     inkscape:window-height="803"
     id="namedview4700"
     showgrid="false"
     inkscape:zoom="1"
     inkscape:cx="422.67532"
     inkscape:cy="686.61277"
     inkscape:window-x="-8"
     inkscape:window-y="-8"
     inkscape:window-maximized="1"
     inkscape:current-layer="g4706" /><g
     id="g4706"
     inkscape:groupmode="layer"
     inkscape:label="Tradelogo"
     transform="matrix(1.25,0,0,-1.25,0,990)"><g
       id="g4708"
       transform="translate(282.75511,579.12761)"><path
         d="m 0,0 -99.363,144.121 14.346,9.894 L 14.35,9.897 0,0 Z"
         style="fill:#f9d208;fill-opacity:1;fill-rule:nonzero;stroke:none"
         id="path4710"
         inkscape:connector-curvature="0" /></g><g
       id="g4712"
       transform="translate(282.75511,579.12761)"><path
         d="m 0,0 -99.363,144.121 14.346,9.894 L 14.35,9.897 0,0 Z"
         style="fill:none;stroke:#100f0d;stroke-width:0.5;stroke-linecap:butt;stroke-linejoin:miter;stroke-miterlimit:4;stroke-dasharray:none;stroke-opacity:1"
         id="path4714"
         inkscape:connector-curvature="0" /></g><g
       id="g4716"
       transform="translate(1.2492114,1.2492114)"><g
         id="g4718"
         clip-path="url(#clipPath4720)"><g
           id="g4724"
           transform="translate(214.124,744.3149)"><path
             d="m 0,0 -202.896,0 c 9.469,-7.336 19.422,-14.685 29.922,-22.008 l 161.57,0 C -10.212,-14.672 -6.563,-7.345 0,0"
             style="fill:#f9d208;fill-opacity:1;fill-rule:nonzero;stroke:none"
             id="path4726"
             inkscape:connector-curvature="0" /></g><g
           id="g4728"
           transform="translate(214.124,744.3149)"><path
             d="m 0,0 -202.896,0 c 9.469,-7.336 19.422,-14.685 29.922,-22.008 l 161.57,0 C -10.212,-14.672 -6.563,-7.345 0,0 Z"
             style="fill:none;stroke:#100f0d;stroke-width:0.5;stroke-linecap:butt;stroke-linejoin:miter;stroke-miterlimit:4;stroke-dasharray:none;stroke-opacity:1"
             id="path4730"
             inkscape:connector-curvature="0" /></g><g
           id="g4732"
           transform="translate(212.3462,704.7119)"><path
             d="m 0,0 -161.059,0 c 7.509,-6.389 15.412,-12.792 23.754,-19.177 l 128.248,0 C -8.109,-12.787 -5.205,-6.399 0,0"
             style="fill:#f9d208;fill-opacity:1;fill-rule:nonzero;stroke:none"
             id="path4734"
             inkscape:connector-curvature="0" /></g><g
           id="g4736"
           transform="translate(212.3462,704.7119)"><path
             d="m 0,0 -161.059,0 c 7.509,-6.389 15.412,-12.792 23.754,-19.177 l 128.248,0 C -8.109,-12.787 -5.205,-6.399 0,0 Z"
             style="fill:none;stroke:#100f0d;stroke-width:0.5;stroke-linecap:butt;stroke-linejoin:miter;stroke-miterlimit:4;stroke-dasharray:none;stroke-opacity:1"
             id="path4738"
             inkscape:connector-curvature="0" /></g><g
           id="g4740"
           transform="translate(238.3096,667.6846)"><path
             d="m 0,0 -151.576,0 c 7.075,-6.397 14.506,-12.8 22.353,-19.184 l 120.704,0 C -7.624,-12.784 -4.898,-6.402 0,0"
             style="fill:#f9d208;fill-opacity:1;fill-rule:nonzero;stroke:none"
             id="path4742"
             inkscape:connector-curvature="0" /></g><g
           id="g4744"
           transform="translate(238.3096,667.6846)"><path
             d="m 0,0 -151.576,0 c 7.075,-6.397 14.506,-12.8 22.353,-19.184 l 120.704,0 C -7.624,-12.784 -4.898,-6.402 0,0 Z"
             style="fill:none;stroke:#100f0d;stroke-width:0.5;stroke-linecap:butt;stroke-linejoin:miter;stroke-miterlimit:4;stroke-dasharray:none;stroke-opacity:1"
             id="path4746"
             inkscape:connector-curvature="0" /></g><g
           id="g4748"
           transform="translate(262.9526,630.7432)"><path
             d="m 0,0 -140.456,0 c 6.558,-6.396 13.454,-12.797 20.724,-19.181 l 111.838,0 C -7.067,-12.789 -4.539,-6.404 0,0"
             style="fill:#f9d208;fill-opacity:1;fill-rule:nonzero;stroke:none"
             id="path4750"
             inkscape:connector-curvature="0" /></g><g
           id="g4752"
           transform="translate(262.9526,630.7432)"><path
             d="m 0,0 -140.456,0 c 6.558,-6.396 13.454,-12.797 20.724,-19.181 l 111.838,0 C -7.067,-12.789 -4.539,-6.404 0,0 Z"
             style="fill:none;stroke:#100f0d;stroke-width:0.5;stroke-linecap:butt;stroke-linejoin:miter;stroke-miterlimit:4;stroke-dasharray:none;stroke-opacity:1"
             id="path4754"
             inkscape:connector-curvature="0" /></g><g
           id="g4756"
           transform="translate(279.8003,580.9878)"><path
             d="M 0,0 -102.811,148.701 -88.98,158.204 13.82,9.502 0,0 Z"
             style="fill:#f9d208;fill-opacity:1;fill-rule:nonzero;stroke:none"
             id="path4758"
             inkscape:connector-curvature="0" /></g><g
           id="g4760"
           transform="translate(330.4902,576.7939)"><path
             d="M 0,0 99.367,144.118 85.02,154.011 -14.348,9.893 0,0 Z"
             style="fill:#f9d208;fill-opacity:1;fill-rule:nonzero;stroke:none"
             id="path4762"
             inkscape:connector-curvature="0" /></g><g
           id="g4764"
           transform="translate(330.4902,576.7939)"><path
             d="M 0,0 99.367,144.118 85.02,154.011 -14.348,9.893 0,0 Z"
             style="fill:none;stroke:#100f0d;stroke-width:0.5;stroke-linecap:butt;stroke-linejoin:miter;stroke-miterlimit:4;stroke-dasharray:none;stroke-opacity:1"
             id="path4766"
             inkscape:connector-curvature="0" /></g><g
           id="g4768"
           transform="translate(397.8789,743.2261)"><path
             d="m 0,0 202.894,0 c -9.474,-7.335 -19.425,-14.683 -29.922,-22.007 l -161.573,0 C 10.208,-14.671 6.558,-7.345 0,0"
             style="fill:#f9d208;fill-opacity:1;fill-rule:nonzero;stroke:none"
             id="path4770"
             inkscape:connector-curvature="0" /></g><g
           id="g4772"
           transform="translate(397.8789,743.2261)"><path
             d="m 0,0 202.894,0 c -9.474,-7.335 -19.425,-14.683 -29.922,-22.007 l -161.573,0 C 10.208,-14.671 6.558,-7.345 0,0 Z"
             style="fill:none;stroke:#100f0d;stroke-width:0.5;stroke-linecap:butt;stroke-linejoin:miter;stroke-miterlimit:4;stroke-dasharray:none;stroke-opacity:1"
             id="path4774"
             inkscape:connector-curvature="0" /></g><g
           id="g4776"
           transform="translate(399.6553,703.6255)"><path
             d="M 0,0 161.058,0 C 153.547,-6.39 145.644,-12.793 137.3,-19.178 l -128.247,0 C 8.108,-12.786 5.207,-6.404 0,0"
             style="fill:#f9d208;fill-opacity:1;fill-rule:nonzero;stroke:none"
             id="path4778"
             inkscape:connector-curvature="0" /></g><g
           id="g4780"
           transform="translate(399.6553,703.6255)"><path
             d="M 0,0 161.058,0 C 153.547,-6.39 145.644,-12.793 137.3,-19.178 l -128.247,0 C 8.108,-12.786 5.207,-6.404 0,0 Z"
             style="fill:none;stroke:#100f0d;stroke-width:0.5;stroke-linecap:butt;stroke-linejoin:miter;stroke-miterlimit:4;stroke-dasharray:none;stroke-opacity:1"
             id="path4782"
             inkscape:connector-curvature="0" /></g><g
           id="g4784"
           transform="translate(373.6904,666.5972)"><path
             d="m 0,0 151.571,0 c -7.068,-6.398 -14.499,-12.799 -22.347,-19.182 l -120.707,0 C 7.623,-12.786 4.897,-6.404 0,0"
             style="fill:#f9d208;fill-opacity:1;fill-rule:nonzero;stroke:none"
             id="path4786"
             inkscape:connector-curvature="0" /></g><g
           id="g4788"
           transform="translate(373.6904,666.5972)"><path
             d="m 0,0 151.571,0 c -7.068,-6.398 -14.499,-12.799 -22.347,-19.182 l -120.707,0 C 7.623,-12.786 4.897,-6.404 0,0 Z"
             style="fill:none;stroke:#100f0d;stroke-width:0.5;stroke-linecap:butt;stroke-linejoin:miter;stroke-miterlimit:4;stroke-dasharray:none;stroke-opacity:1"
             id="path4790"
             inkscape:connector-curvature="0" /></g><g
           id="g4792"
           transform="translate(349.0449,629.6543)"><path
             d="m 0,0 140.456,0 c -6.558,-6.392 -13.45,-12.797 -20.725,-19.182 l -111.832,0 C 7.072,-12.789 4.54,-6.404 0,0"
             style="fill:#f9d208;fill-opacity:1;fill-rule:nonzero;stroke:none"
             id="path4794"
             inkscape:connector-curvature="0" /></g><g
           id="g4796"
           transform="translate(349.0449,629.6543)"><path
             d="m 0,0 140.456,0 c -6.558,-6.392 -13.45,-12.797 -20.725,-19.182 l -111.832,0 C 7.072,-12.789 4.54,-6.404 0,0 Z"
             style="fill:none;stroke:#100f0d;stroke-width:0.5;stroke-linecap:butt;stroke-linejoin:miter;stroke-miterlimit:4;stroke-dasharray:none;stroke-opacity:1"
             id="path4798"
             inkscape:connector-curvature="0" /></g><g
           id="g4800"
           transform="translate(332.1963,579.8989)"><path
             d="M 0,0 102.816,148.702 88.987,158.207 -13.816,9.502 0,0 Z"
             style="fill:#f9d208;fill-opacity:1;fill-rule:nonzero;stroke:none"
             id="path4802"
             inkscape:connector-curvature="0" /></g><g
           id="g4804"
           transform="translate(420.3506,500.522)"><path
             d="m 0,0 c 5.703,-11.426 6.143,-18.282 6.001,-32.571 3.401,5.308 3.506,6.937 3.515,12.934 2.135,-2.14 6.628,-3.867 12.863,-3.67 C 11.32,-20.109 4.726,-1.033 4.726,-1.033 L 0,0 Z"
             style="fill:#f9d208;fill-opacity:1;fill-rule:nonzero;stroke:none"
             id="path4806"
             inkscape:connector-curvature="0" /></g><g
           id="g4808"
           transform="translate(420.3506,500.522)"><path
             d="m 0,0 c 5.703,-11.426 6.143,-18.282 6.001,-32.571 3.401,5.308 3.506,6.937 3.515,12.934 2.135,-2.14 6.628,-3.867 12.863,-3.67 C 11.32,-20.109 4.726,-1.033 4.726,-1.033 L 0,0 Z"
             style="fill:none;stroke:#100f0d;stroke-width:0.5;stroke-linecap:butt;stroke-linejoin:miter;stroke-miterlimit:4;stroke-dasharray:none;stroke-opacity:1"
             id="path4810"
             inkscape:connector-curvature="0" /></g><g
           id="g4812"
           transform="translate(289.0649,632.1865)"><path
             d="m 0,0 12.349,-478.713 c 0.052,-2.29 3.208,-4.262 4.749,-4.236 1.222,-0.026 4.782,2.277 4.827,4.058 L 34.185,0 0,0 Z"
             style="fill:#f9d208;fill-opacity:1;fill-rule:nonzero;stroke:none"
             id="path4814"
             inkscape:connector-curvature="0" /></g><g
           id="g4816"
           transform="translate(289.0649,632.1865)"><path
             d="m 0,0 12.349,-478.713 c 0.052,-2.29 3.208,-4.262 4.749,-4.236 1.222,-0.026 4.782,2.277 4.827,4.058 L 34.185,0 0,0 Z"
             style="fill:none;stroke:#100f0d;stroke-width:0.5;stroke-linecap:butt;stroke-linejoin:miter;stroke-miterlimit:4;stroke-dasharray:none;stroke-opacity:1"
             id="path4818"
             inkscape:connector-curvature="0" /></g><g
           id="g4820"
           transform="translate(365.5205,224.0449)"><path
             d="m 0,0 c 2.843,27.266 -27.448,35.642 -43.946,40.643 -17.147,5.704 -37.586,6.949 -37.826,25.24 -0.441,10.866 7.817,20.087 13.305,23.349 l -1.02,34.036 c -24.784,-10.151 -43.247,-41.395 -41.496,-63.751 3.309,-42.069 84.659,-36.475 84.169,-57.43 0,-6.358 -17.378,-9.144 -26.642,-9.886 l -0.758,-24.716 C -42.873,-30.425 -2.831,-27.25 0,0 m -69.088,-12.723 c -21.814,-9.77 -25.4,-55.425 -25.4,-55.425 2.827,18.876 24.663,34.119 29.424,35.485 z m 43.581,345.383 c 5.761,0.353 16.543,-14.611 36.416,-36.625 19.828,-22.006 49.59,-22.41 49.59,-22.41 0,0 0,19.917 -8.503,50.316 -8.509,30.407 -51.529,33.079 -73.261,33.877 -7.235,0.278 -16.991,4.876 -21.665,5.235 l -0.85,-30.459 c 11.306,0.974 14.948,0.066 18.273,0.066 m -52.7,29.885 c -32.793,0.278 -69.138,-30.29 -72.059,-63.762 -3.415,-38.857 28.218,-78.679 79.405,-84.921 68.426,-8.779 58.219,-36.049 58.219,-48.635 -5.823,-21.928 -19.912,-25.255 -36.714,-37.023 l 0,-31.783 c 27.89,10.892 74.741,24.152 74.741,70.267 0,46.132 -24.421,72.342 -72.634,80.719 -48.197,8.389 -67.876,25.11 -67.093,47.19 0.073,18.129 13.616,33.324 39.765,35.579 z"
             style="fill:#f9d208;fill-opacity:1;fill-rule:nonzero;stroke:none"
             id="path4822"
             inkscape:connector-curvature="0"
             sodipodi:nodetypes="ccccccccccccccccccccccccccccscccc" /></g><g
           id="g4824"
           transform="translate(365.5205,224.0449)"><path
             d="m 0,0 c 2.843,27.266 -27.448,35.642 -43.946,40.643 -17.147,5.704 -37.586,6.949 -37.826,25.24 -0.441,10.866 7.817,20.087 13.305,23.349 l -1.02,34.036 c -24.784,-10.151 -43.247,-41.395 -41.496,-63.751 3.309,-42.069 84.659,-36.475 84.169,-57.43 0,-6.358 -16.778,-9.344 -26.042,-10.086 l -0.558,-24.616 C -42.073,-30.525 -2.831,-27.25 0,0 Z m -69.088,-12.723 c -21.814,-9.77 -25.4,-55.425 -25.4,-55.425 2.827,18.876 24.663,34.119 29.424,35.485 z m 43.581,345.383 c 5.761,0.353 16.543,-14.611 36.416,-36.625 19.828,-22.006 49.59,-22.41 49.59,-22.41 0,0 0,19.917 -8.503,50.316 -8.509,30.407 -51.529,33.079 -73.261,33.877 -7.235,0.278 -16.991,4.876 -21.665,5.235 l -0.85,-30.459 c 11.306,0.974 14.948,0.066 18.273,0.066 z m -52.7,29.885 c -32.793,0.278 -69.138,-30.29 -72.059,-63.762 -3.415,-38.857 28.218,-78.679 79.405,-84.921 68.426,-8.779 58.219,-36.049 58.219,-48.635 -5.823,-21.928 -19.912,-25.255 -36.714,-37.023 l 0,-31.783 c 27.89,10.892 74.741,24.152 74.741,70.267 0,46.132 -24.421,72.342 -72.634,80.719 -48.197,8.389 -67.876,25.11 -67.093,47.19 0.073,18.129 13.616,33.324 39.765,35.579 z"
             style="fill:none;stroke:#100f0d;stroke-width:0.5;stroke-linecap:butt;stroke-linejoin:miter;stroke-miterlimit:4;stroke-dasharray:none;stroke-opacity:1"
             id="path4826"
             inkscape:connector-curvature="0"
             sodipodi:nodetypes="ccccccccccccccccccccccccccccscccc" /></g><g
           id="g4828"
           transform="translate(400.1416,555.1426)"><path
             d="m 0,0 c 4.337,-3.962 6.268,-8.963 4.274,-11.129 -1.975,-2.168 -7.117,-0.732 -11.473,3.234 -4.36,3.981 -6.279,8.968 -4.278,11.14 C -9.498,5.415 -4.376,3.975 0,0"
             style="fill:#ffffff;fill-opacity:1;fill-rule:nonzero;stroke:none"
             id="path4830"
             inkscape:connector-curvature="0" /></g><g
           id="g4832"
           transform="translate(400.1416,555.1426)"><path
             d="m 0,0 c 4.337,-3.962 6.268,-8.963 4.274,-11.129 -1.975,-2.168 -7.117,-0.732 -11.473,3.234 -4.36,3.981 -6.279,8.968 -4.278,11.14 C -9.498,5.415 -4.376,3.975 0,0 Z"
             style="fill:none;stroke:#100f0d;stroke-width:0.5;stroke-linecap:butt;stroke-linejoin:miter;stroke-miterlimit:4;stroke-dasharray:none;stroke-opacity:1"
             id="path4834"
             inkscape:connector-curvature="0" /></g><g
           id="g4836"
           transform="translate(306.2979,683.6279)"><path
             d="m 0,0 c 15.896,0 28.781,-12.888 28.781,-28.79 0,-15.912 -12.885,-28.789 -28.781,-28.789 -15.904,0 -28.8,12.877 -28.8,28.789 C -28.8,-12.888 -15.904,0 0,0"
             style="fill:#f9d208;fill-opacity:1;fill-rule:nonzero;stroke:#100f0d;stroke-width:0.5;stroke-linecap:butt;stroke-linejoin:miter;stroke-miterlimit:4;stroke-dasharray:none;stroke-opacity:1"
             id="path4838"
             inkscape:connector-curvature="0" /></g><g
           id="g4840"
           transform="translate(331.1865,779.0825)"><path
             d="m 0,0 c 36.446,-13.617 54.961,-54.243 41.341,-90.697 -13.616,-36.445 -54.256,-54.96 -90.698,-41.337 -36.437,13.621 -54.965,54.261 -41.33,90.704 C -77.067,-4.887 -36.452,13.627 0,0"
             style="fill:#f9d208;fill-opacity:1;fill-rule:nonzero;stroke:none"
             id="path4842"
             inkscape:connector-curvature="0" /></g><g
           id="g4844"
           transform="translate(331.1865,779.0825)"><path
             d="m 0,0 c 36.446,-13.617 54.961,-54.243 41.341,-90.697 -13.616,-36.445 -54.256,-54.96 -90.698,-41.337 -36.437,13.621 -54.965,54.261 -41.33,90.704 C -77.067,-4.887 -36.452,13.627 0,0 Z"
             style="fill:none;stroke:#100f0d;stroke-width:0.5;stroke-linecap:butt;stroke-linejoin:miter;stroke-miterlimit:4;stroke-dasharray:none;stroke-opacity:1"
             id="path4846"
             inkscape:connector-curvature="0" /></g><g
           id="g4848"
           transform="translate(321.1719,554.0234)"><path
             d="m 0,0 c 26.139,-2.261 37.856,-17.314 37.95,-35.45 0.763,-22.091 -18.905,-38.798 -67.107,-47.17 -48.197,-8.401 -72.614,-34.603 -72.614,-80.736 0,-46.118 49.912,-62.39 77.786,-73.3 l -0.892,33.451 c -16.803,11.765 -33.052,16.465 -38.903,38.401 0,12.559 -10.192,39.842 58.254,48.628 51.193,6.249 82.808,46.054 79.386,84.912 C 70.926,2.214 33.81,32.825 1.021,32.534 L 0,0 Z"
             style="fill:#f9d208;fill-opacity:1;fill-rule:nonzero;stroke:none"
             id="path4850"
             inkscape:connector-curvature="0" /></g><g
           id="g4852"
           transform="translate(321.1719,554.0234)"><path
             d="m 0,0 c 26.139,-2.261 37.856,-17.314 37.95,-35.45 0.763,-22.091 -18.905,-38.798 -67.107,-47.17 -48.197,-8.401 -72.614,-34.603 -72.614,-80.736 0,-46.118 49.912,-62.39 77.786,-73.3 l -0.892,33.451 c -16.803,11.765 -33.052,16.465 -38.903,38.401 0,12.559 -10.192,39.842 58.254,48.628 51.193,6.249 82.808,46.054 79.386,84.912 C 70.926,2.214 33.81,32.825 1.021,32.534 L 0,0 Z"
             style="fill:none;stroke:#100f0d;stroke-width:0.5;stroke-linecap:butt;stroke-linejoin:miter;stroke-miterlimit:4;stroke-dasharray:none;stroke-opacity:1"
             id="path4854"
             inkscape:connector-curvature="0" /></g><g
           id="g4856"
           transform="translate(291.1533,555.7939)"><path
             d="m 0,0 -1.077,31.867 c -4.676,-0.357 -16.791,-5.588 -24.042,-5.87 -21.759,-0.791 -64.752,-3.469 -73.263,-33.87 -7.939,-28.408 -8.5,-29.933 -8.5,-50.327 11.849,0.167 29.616,0.244 49.609,22.421 19.853,22.018 30.637,36.976 36.387,36.612 3.331,0 9.588,0.155 20.886,-0.833"
             style="fill:#f9d208;fill-opacity:1;fill-rule:nonzero;stroke:none"
             id="path4858"
             inkscape:connector-curvature="0" /></g><g
           id="g4860"
           transform="translate(291.1533,555.7939)"><path
             d="m 0,0 -1.077,31.867 c -4.676,-0.357 -16.791,-5.588 -24.042,-5.87 -21.759,-0.791 -64.752,-3.469 -73.263,-33.87 -7.939,-28.408 -8.5,-29.933 -8.5,-50.327 11.849,0.167 29.616,0.244 49.609,22.421 19.853,22.018 30.637,36.976 36.387,36.612 3.331,0 9.588,0.155 20.886,-0.833 z"
             style="fill:none;stroke:#100f0d;stroke-width:0.5;stroke-linecap:butt;stroke-linejoin:miter;stroke-miterlimit:4;stroke-dasharray:none;stroke-opacity:1"
             id="path4862"
             inkscape:connector-curvature="0" /></g><g
           id="g4864"
           transform="translate(311.9863,191.9336)"><path
             d="m 0,0 c 4.758,-1.368 24.441,-17.233 27.287,-36.111 0,0 -4.927,47.634 -26.749,57.425 L 0,0 Z"
             style="fill:#f9d208;fill-opacity:1;fill-rule:nonzero;stroke:none"
             id="path4866"
             inkscape:connector-curvature="0" /></g><g
           id="g4868"
           transform="translate(311.9863,191.9336)"><path
             d="M 0.1,-0.4 C 4.858,-1.768 24.441,-17.233 27.287,-36.111 27.212862,-36.667033 21.949415,11.443613 0.538,24.314 Z"
             style="fill:none;stroke:#100f0d;stroke-width:0.5;stroke-linecap:butt;stroke-linejoin:miter;stroke-miterlimit:4;stroke-dasharray:none;stroke-opacity:1"
             id="path4870"
             inkscape:connector-curvature="0"
             sodipodi:nodetypes="cccc" /></g><g
           id="g4872"
           transform="translate(300.2769,193.2373)"><path
             d="m 0,0 -0.479,22.67 c -9.261,0.724 -28.223,3.792 -28.223,10.155 -0.484,20.969 80.864,15.362 84.187,57.435 2.196,27.958 -9.393,49.116 -39.729,61.558 L 14.723,119.209 C 20.21,115.967 26.694,107.478 26.258,96.626 26.018,78.343 5.591,77.079 -11.549,71.381 -28.066,66.385 -58.35,58.009 -55.52,30.721 -52.692,3.479 -11.348,2.087 0,0"
             style="fill:#f9d208;fill-opacity:1;fill-rule:nonzero;stroke:none"
             id="path4874"
             inkscape:connector-curvature="0" /></g><g
           id="g4876"
           transform="translate(300.2769,193.2373)"><path
             d="m 0,0 -0.479,22.67 c -9.261,0.724 -28.223,3.792 -28.223,10.155 -0.484,20.969 80.864,15.362 84.187,57.435 2.196,27.958 -9.393,49.116 -39.729,61.558 L 14.723,119.209 C 20.21,115.967 26.694,107.478 26.258,96.626 26.018,78.343 5.591,77.079 -11.549,71.381 -28.066,66.385 -58.35,58.009 -55.52,30.721 -52.692,3.479 -11.348,2.087 0,0 Z"
             style="fill:none;stroke:#100f0d;stroke-width:0.5;stroke-linecap:butt;stroke-linejoin:miter;stroke-miterlimit:4;stroke-dasharray:none;stroke-opacity:1"
             id="path4878"
             inkscape:connector-curvature="0" /></g><g
           id="g4880"
           transform="translate(223.6812,558.3345)"><path
             d="m 0,0 c 1.988,-2.169 0.076,-7.154 -4.281,-11.127 -4.365,-3.985 -9.498,-5.418 -11.478,-3.248 -1.987,2.187 -0.071,7.164 4.28,11.137 C -7.112,0.726 -1.979,2.186 0,0"
             style="fill:#ffffff;fill-opacity:1;fill-rule:nonzero;stroke:none"
             id="path4882"
             inkscape:connector-curvature="0" /></g><g
           id="g4884"
           transform="translate(223.6812,558.3345)"><path
             d="m 0,0 c 1.988,-2.169 0.076,-7.154 -4.281,-11.127 -4.365,-3.985 -9.498,-5.418 -11.478,-3.248 -1.987,2.187 -0.071,7.164 4.28,11.137 C -7.112,0.726 -1.979,2.186 0,0 Z"
             style="fill:none;stroke:#100f0d;stroke-width:0.5;stroke-linecap:butt;stroke-linejoin:miter;stroke-miterlimit:4;stroke-dasharray:none;stroke-opacity:1"
             id="path4886"
             inkscape:connector-curvature="0" /></g><g
           id="g4888"
           transform="translate(183.9678,496.3799)"><path
             d="m 0,0 c 0,0 -6.59,-19.068 -17.623,-22.286 6.203,-0.188 10.701,1.546 12.847,3.685 0.15,-41.277 3.99,-13.373 3.515,-12.949 -0.151,14.295 0.291,21.165 5.987,32.583 L 0,0 Z"
             style="fill:#f9d208;fill-opacity:1;fill-rule:nonzero;stroke:none"
             id="path4890"
             inkscape:connector-curvature="0" /></g><g
           id="g4892"
           transform="translate(183.9678,496.3799)"><path
             d="m 0,0 c 0,0 -6.59,-19.068 -17.623,-22.286 6.203,-0.188 10.701,1.546 12.847,3.685 0.15,-41.277 3.99,-13.373 3.515,-12.949 -0.151,14.295 0.291,21.165 5.987,32.583 L 0,0 Z"
             style="fill:none;stroke:#100f0d;stroke-width:0.5;stroke-linecap:butt;stroke-linejoin:miter;stroke-miterlimit:4;stroke-dasharray:none;stroke-opacity:1"
             id="path4894"
             inkscape:connector-curvature="0" /></g><g
           id="g4896"
           transform="translate(173.4575,94.9473)"><path
             d="M 0,0 C 2.478,0.744 5.203,1.363 7.929,1.858 L 8.052,1.487 C 7.681,-1.114 6.442,-10.034 4.832,-16.104 l -0.496,-0.621 c -0.991,3.098 -3.841,11.399 -4.708,14.123 l -23.414,-1.238 0,-32.211 c 0,-33.201 0.619,-37.042 0.619,-40.758 l 13.256,-4.584 -0.124,-0.496 c -6.318,0.124 -12.389,0.372 -18.583,0.372 -6.07,0 -12.265,-0.248 -18.459,-0.372 l 0.248,0.496 12.636,4.584 c 0.248,4.336 0.372,7.557 0.372,36.67 l 0,36.299 -21.68,1.238 c -1.611,-3.468 -5.823,-11.397 -7.186,-13.875 l -0.619,-0.124 c -0.248,4.089 0,15.734 0.371,17.964 l 0.372,0.495 C -60.209,1.363 -57.359,0.744 -55.129,0 L 0,0 Z"
             style="fill:#231f20;fill-opacity:1;fill-rule:nonzero;stroke:none"
             id="path4898"
             inkscape:connector-curvature="0" /></g><g
           id="g4900"
           transform="translate(190.0601,93.709)"><path
             d="m 0,0 c 5.451,1.238 18.955,2.478 28.37,2.478 19.945,0 29.484,-6.938 29.484,-20.318 0,-14.494 -11.893,-19.574 -19.821,-22.176 l 0,-0.247 c 3.345,-5.327 11.769,-17.84 20.193,-28.742 5.823,-7.929 7.681,-9.911 9.911,-12.76 l -0.248,-0.372 c -9.415,0.496 -14.742,3.965 -19.945,9.911 -5.08,5.699 -13.38,17.22 -21.68,30.105 l 0.371,0.495 c 12.636,3.345 20.442,9.415 20.442,22.052 0,15.238 -12.141,19.574 -27.132,19.326 l 0,-40.387 c 0,-16.972 -0.123,-28.618 0.248,-35.183 l 11.893,-4.336 -0.248,-0.496 c -6.07,0.124 -11.893,0.372 -17.839,0.372 -5.203,0 -10.283,-0.248 -15.486,-0.372 l 0.248,0.496 10.158,4.336 c 0.248,5.079 0.868,18.707 0.868,35.059 l 0,37.909 L -0.372,-0.496 0,0 Z"
             style="fill:#231f20;fill-opacity:1;fill-rule:nonzero;stroke:none"
             id="path4902"
             inkscape:connector-curvature="0" /></g><g
           id="g4904"
           transform="translate(302.3037,82.4355)"><path
             d="m 0,0 c -4.336,-11.521 -8.548,-22.424 -12.141,-32.83 3.593,0 19.203,-0.496 24.53,-0.496 C 7.929,-20.937 3.964,-10.407 0.248,0 L 0,0 Z m 5.203,15.609 0.743,-0.495 c -0.248,-2.106 0,-3.841 1.487,-8.177 1.859,-5.079 20.565,-54.014 26.635,-69.128 3.593,-3.097 6.691,-4.336 11.646,-6.69 l -0.248,-0.496 c -4.336,0.124 -9.91,0.372 -14.123,0.372 -4.336,0 -8.548,-0.248 -12.636,-0.372 l 0.124,0.496 5.079,4.212 c -1.363,4.212 -5.327,14.123 -10.53,27.998 -4.708,-0.371 -10.035,-0.867 -27.007,-0.619 -5.328,-13.504 -7.558,-19.698 -9.788,-26.76 l 10.779,-4.831 -0.248,-0.496 c -3.593,0.124 -9.663,0.372 -14.123,0.372 -3.965,0 -7.929,-0.248 -11.769,-0.372 l 0.124,0.496 8.92,4.708 c 4.336,8.919 17.591,40.634 27.874,67.022 0.371,0.991 0.371,2.106 0.124,3.097 l -1.239,3.593 8.176,6.07 z"
             style="fill:#231f20;fill-opacity:1;fill-rule:nonzero;stroke:none"
             id="path4906"
             inkscape:connector-curvature="0" /></g><g
           id="g4908"
           transform="translate(373.1709,56.0479)"><path
             d="m 0,0 c 0,-20.565 0.124,-38.776 0.62,-40.511 14.246,0 27.131,2.849 35.06,9.787 7.309,6.194 12.635,15.981 12.635,30.476 0,11.397 -3.715,21.68 -12.635,28.989 C 28.122,34.936 16.973,37.785 0,37.413 L 0,0 Z m -20.317,38.652 c 2.725,0.247 14.495,1.487 27.999,1.487 30.97,0 52.155,-11.893 52.155,-39.892 0,-24.529 -16.229,-34.811 -27.255,-39.023 -9.043,-3.469 -20.317,-4.213 -32.21,-4.213 -8.425,0 -16.973,0.248 -21.804,0.372 l 0.247,0.495 10.408,3.965 c 0.495,1.239 0.743,17.344 0.743,38.033 l 0,35.308 -10.778,2.972 0.495,0.496 z"
             style="fill:#231f20;fill-opacity:1;fill-rule:nonzero;stroke:none"
             id="path4910"
             inkscape:connector-curvature="0" /></g><g
           id="g4912"
           transform="translate(441.4375,95.3193)"><path
             d="m 0,0 c 4.708,-0.124 9.539,-0.372 14.371,-0.372 l 32.458,0 c 1.486,0.496 6.69,1.363 8.177,1.487 l 0.247,-0.248 c -0.495,-3.345 -2.602,-12.388 -3.469,-16.724 l -0.619,-0.372 c -1.362,3.592 -3.593,9.787 -4.708,13.008 l -26.388,-0.991 0,-33.325 c 11.151,0 23.786,0.247 30.972,1.238 l 0.248,-0.371 c -0.496,-0.991 -5.575,-5.699 -6.194,-5.699 -1.24,0 -21.804,1.115 -25.026,1.115 0,-8.92 0,-25.149 0.496,-36.547 l 27.131,-1.486 c 3.221,4.584 7.681,11.149 10.655,14.866 l 0.495,-0.124 c -0.247,-3.221 -2.23,-12.512 -3.717,-17.716 -7.681,0.372 -14.866,0.372 -21.928,0.372 l -18.954,0 c -5.451,0 -12.265,-0.248 -16.725,-0.372 l 0.372,0.496 11.398,4.46 c 0.371,1.239 0.743,16.973 0.743,38.034 l 0,34.687 L -0.124,-0.495 0,0 Z"
             style="fill:#231f20;fill-opacity:1;fill-rule:nonzero;stroke:none"
             id="path4914"
             inkscape:connector-curvature="0" /></g></g></g></g></svg>