<?xml version="1.0" standalone="no"?>
<!DOCTYPE svg PUBLIC "-//W3C//DTD SVG 20010904//EN"
 "http://www.w3.org/TR/2001/REC-SVG-20010904/DTD/svg10.dtd">
<svg version="1.0" xmlns="http://www.w3.org/2000/svg"
 width="5213.000000pt" height="5213.000000pt" viewBox="0 0 5213.000000 5213.000000"
 preserveAspectRatio="xMidYMid meet">

<g transform="translate(0.000000,5213.000000) scale(0.100000,-0.100000)"
fill="#000000" stroke="none">
<path d="M0 26065 l0 -26065 26065 0 26065 0 0 26065 0 26065 -26065 0 -26065
0 0 -26065z m26715 24435 c603 -16 1081 -44 1645 -96 3802 -346 7466 -1582
10709 -3613 1283 -804 2466 -1709 3631 -2779 285 -262 1056 -1031 1311 -1307
861 -936 1563 -1811 2254 -2815 1012 -1469 1887 -3105 2553 -4775 1989 -4987
2273 -10559 801 -15742 -520 -1833 -1269 -3630 -2203 -5287 -2246 -3981 -5564
-7262 -9571 -9463 -1801 -989 -3745 -1753 -5750 -2258 -2458 -620 -5004 -852
-7570 -690 -2764 175 -5486 824 -8035 1915 -3801 1628 -7147 4214 -9696 7495
-3040 3914 -4807 8627 -5089 13575 -49 859 -50 1893 -4 2735 253 4652 1802
9075 4503 12860 1139 1596 2493 3077 3988 4361 3122 2680 6821 4510 10840
5364 1833 389 3816 570 5683 520z"/>
<path d="M25590 50249 c-3016 -61 -5992 -684 -8760 -1836 -2423 -1008 -4677
-2412 -6650 -4140 -738 -646 -1504 -1407 -2150 -2133 -1254 -1410 -2329 -2945
-3230 -4610 -168 -312 -551 -1080 -699 -1405 -978 -2144 -1626 -4364 -1950
-6685 -235 -1678 -292 -3424 -170 -5130 197 -2756 858 -5431 1966 -7960 235
-535 596 -1274 868 -1774 1009 -1856 2213 -3526 3654 -5066 200 -213 868 -881
1081 -1081 3247 -3038 7197 -5107 11500 -6023 1224 -260 2535 -433 3775 -496
814 -41 1790 -41 2565 0 3812 204 7459 1278 10745 3165 4558 2618 8142 6643
10217 11475 1574 3665 2209 7711 1843 11740 -445 4890 -2362 9499 -5524 13285
-1797 2151 -3991 4003 -6406 5407 -3384 1967 -7087 3058 -11033 3248 -225 11
-1078 31 -1207 28 -38 -1 -234 -5 -435 -9z m7696 -2190 c104 -33 192 -64 196
-68 7 -6 -762 -2364 -775 -2377 -3 -3 -94 24 -204 59 -169 55 -197 68 -195 83
3 15 264 812 743 2272 17 50 34 92 38 92 5 0 93 -27 197 -61z m-14431 -100
c39 -12 87 -30 107 -40 32 -17 36 -22 29 -42 -5 -12 -32 -95 -60 -184 l-52
-163 -48 25 c-183 92 -425 28 -513 -138 -32 -59 -32 -207 0 -286 69 -165 162
-218 457 -262 285 -41 421 -90 549 -195 81 -67 135 -138 182 -238 109 -238
112 -495 8 -702 -87 -175 -270 -308 -501 -366 -121 -31 -322 -30 -437 1 -116
31 -189 66 -182 88 3 10 26 90 52 178 26 88 50 163 53 167 4 4 38 -5 76 -21
234 -98 485 -40 577 132 32 59 32 206 0 287 -68 171 -181 232 -521 281 -75 11
-169 29 -210 40 -194 53 -347 176 -434 349 -258 517 -24 999 536 1106 97 18
242 11 332 -17z m15440 -256 c88 -36 166 -67 174 -70 11 -5 12 -131 7 -762 -3
-416 -9 -848 -12 -961 -4 -134 -2 -202 4 -195 5 6 157 377 338 825 180 448
328 816 330 818 3 4 327 -127 337 -137 4 -4 -189 -491 -429 -1082 -240 -591
-451 -1113 -470 -1160 l-35 -87 -217 89 -217 88 3 958 c2 602 0 952 -6 943 -6
-8 -155 -377 -332 -820 -178 -443 -324 -807 -326 -809 -4 -4 -335 129 -348
140 -6 5 705 1779 921 2296 l13 33 53 -21 c28 -11 124 -50 212 -86z m-17081
-358 c77 -16 206 -72 206 -89 -2 -33 -98 -361 -106 -359 -5 1 -38 15 -74 30
-57 25 -77 28 -170 28 -97 0 -110 -2 -171 -31 -37 -18 -84 -48 -106 -68 -167
-150 -176 -493 -24 -876 189 -475 492 -780 755 -757 178 15 307 126 360 311
l21 73 170 -79 c93 -43 170 -80 172 -82 9 -8 -53 -189 -85 -250 -81 -155 -243
-283 -444 -352 -396 -134 -821 68 -1140 545 -173 259 -302 597 -338 885 -17
133 -8 347 19 448 44 170 111 289 222 400 184 182 488 275 733 223z m19209
-586 c221 -111 443 -224 494 -251 l92 -49 -84 -170 c-47 -93 -87 -169 -90
-169 -3 0 -144 69 -313 154 l-308 154 -152 -304 -152 -304 283 -141 c155 -78
283 -142 285 -144 4 -4 -157 -325 -163 -325 -3 0 -132 63 -286 141 -155 77
-282 139 -284 137 -1 -2 -31 -59 -65 -128 -34 -69 -143 -284 -242 -477 l-179
-352 -190 94 c-104 52 -189 98 -189 101 0 8 342 692 792 1582 181 358 334 652
339 652 5 0 190 -91 412 -201z m-20339 -1254 c324 -608 587 -1107 585 -1109
-32 -24 -373 -195 -379 -189 -11 13 -1170 2194 -1170 2202 0 8 347 198 365
200 6 0 275 -496 599 -1104z m-814 -412 c370 -575 674 -1051 676 -1057 3 -10
-313 -218 -339 -223 -7 -1 -243 362 -526 807 -283 446 -515 809 -517 807 -1
-1 134 -421 301 -932 167 -512 306 -938 307 -947 2 -13 -35 -42 -137 -108
l-140 -89 -55 53 c-130 126 -1391 1296 -1396 1296 -4 0 2 -12 12 -27 323 -492
1023 -1587 1017 -1592 -44 -38 -316 -202 -323 -195 -14 15 -1340 2083 -1342
2095 -3 12 448 308 469 309 7 0 323 -286 703 -636 380 -350 694 -633 697 -630
3 3 -125 400 -285 883 -160 483 -292 886 -294 896 -2 14 55 55 242 176 135 88
248 160 252 160 3 1 308 -470 678 -1046z m22675 883 c217 -74 386 -216 475
-401 169 -347 77 -847 -248 -1340 -240 -365 -510 -593 -807 -681 -73 -21 -111
-26 -205 -27 -142 -1 -223 17 -345 78 -408 203 -541 639 -360 1183 155 465
524 941 865 1116 162 83 259 106 425 102 99 -3 134 -8 200 -30z m-10920 -485
c973 -55 1719 -142 2568 -297 4700 -859 8920 -3445 11850 -7261 1305 -1700
2318 -3608 2997 -5643 859 -2577 1162 -5319 889 -8060 -287 -2898 -1243 -5720
-2777 -8200 -572 -924 -1208 -1784 -1930 -2607 -513 -585 -1177 -1250 -1767
-1769 -1419 -1248 -3035 -2295 -4741 -3072 -3047 -1389 -6382 -1957 -9749
-1661 -2681 235 -5303 1040 -7660 2352 -3655 2034 -6574 5220 -8275 9032 -920
2062 -1470 4278 -1625 6535 -55 819 -59 1706 -10 2520 240 3965 1695 7755
4166 10851 481 603 900 1070 1464 1634 928 929 1876 1708 2945 2422 975 651
2033 1225 3095 1681 2190 939 4469 1451 6910 1552 270 11 1403 5 1650 -9z
m12582 -668 c316 -235 405 -313 473 -417 172 -261 94 -622 -193 -892 -155
-146 -352 -211 -527 -173 -28 6 -53 9 -55 7 -2 -2 -77 -269 -165 -593 -89
-324 -162 -590 -163 -591 -4 -4 -352 258 -355 266 -2 5 70 252 158 550 153
514 161 543 143 555 -10 7 -52 38 -93 68 -41 31 -78 52 -81 49 -4 -4 -145
-194 -314 -422 -169 -228 -311 -418 -314 -422 -4 -4 -80 47 -169 114 -113 83
-161 125 -158 135 4 8 338 462 744 1009 461 622 742 992 750 989 7 -3 150
-107 319 -232z m-27366 -508 c259 -45 510 -195 759 -452 417 -431 625 -914
556 -1293 -31 -167 -92 -285 -211 -405 -97 -99 -173 -149 -285 -192 -318 -119
-676 -19 -1041 292 -204 174 -437 477 -554 720 -208 431 -186 812 62 1075 203
216 445 303 714 255z m28813 -605 c113 -102 205 -189 205 -195 0 -5 -197 -386
-438 -845 -242 -459 -438 -837 -436 -839 2 -2 360 229 795 514 435 284 794
515 799 513 5 -2 107 -92 225 -201 l217 -198 -58 -64 c-427 -472 -1630 -1784
-1636 -1784 -5 -1 -76 60 -158 135 -147 135 -149 137 -132 157 10 12 302 329
648 706 563 611 674 735 624 695 -23 -19 -1643 -1066 -1656 -1071 -12 -5 -250
203 -252 219 -1 4 208 400 464 879 256 479 464 873 463 875 -2 1 -293 -316
-648 -707 -354 -390 -647 -708 -651 -707 -17 7 -279 252 -277 260 6 16 1683
1847 1691 1845 4 -1 99 -85 211 -187z m-29595 -1445 l861 -879 -162 -163 c-90
-90 -168 -163 -174 -163 -6 0 -400 171 -875 379 -475 209 -866 378 -868 376
-2 -3 273 -284 610 -625 338 -342 615 -627 617 -633 1 -7 -59 -70 -134 -141
-113 -108 -138 -127 -148 -115 -17 18 -1474 1508 -1625 1662 l-116 117 170
170 c93 94 173 170 177 170 5 0 398 -174 874 -386 476 -212 868 -384 870 -381
4 4 -527 548 -1013 1037 l-224 226 133 132 c125 124 134 130 150 114 9 -9 404
-413 877 -897z m31845 -792 c97 -109 174 -203 172 -209 -4 -11 -1386 -2018
-1434 -2083 l-26 -34 -45 49 c-25 28 -92 102 -149 166 l-102 116 155 220 c85
121 155 222 155 225 0 7 -420 481 -429 485 -4 1 -112 -54 -241 -123 -129 -69
-238 -124 -244 -122 -5 2 -71 73 -147 158 l-137 154 31 17 c845 446 2245 1178
2254 1178 6 0 91 -89 187 -197z m-34037 -169 c298 -62 641 -266 932 -555 226
-225 368 -452 433 -691 18 -67 22 -109 22 -218 0 -124 -3 -143 -32 -231 -71
-215 -245 -402 -449 -484 -405 -163 -965 44 -1458 539 -66 67 -150 161 -186
209 -289 386 -338 775 -137 1084 134 205 319 327 548 362 81 12 226 6 327 -15z
m35030 -1020 c227 -291 411 -532 410 -536 -3 -9 -270 -218 -279 -218 -4 0 -68
79 -143 175 -75 96 -141 177 -146 180 -7 5 -1576 -1202 -1681 -1292 -14 -13
-28 1 -138 143 -67 86 -124 162 -126 169 -3 8 322 267 835 665 463 359 841
656 841 661 0 4 -63 89 -141 189 -131 169 -140 183 -122 195 10 7 72 56 138
108 66 53 125 94 130 93 6 -1 195 -241 422 -532z m-36303 -346 c55 -195 86
-309 86 -318 0 -5 -17 -10 -38 -10 -54 0 -147 -26 -204 -57 -26 -14 -71 -50
-99 -80 -193 -204 -125 -504 184 -799 153 -147 317 -261 511 -355 170 -82 287
-111 432 -107 104 3 114 5 186 41 89 44 136 92 182 187 29 60 31 72 30 165 -1
66 -7 115 -18 144 -9 24 -15 46 -13 48 5 4 301 33 344 33 31 0 33 -3 54 -67
13 -43 23 -107 26 -174 7 -135 -12 -228 -73 -347 -113 -224 -269 -358 -499
-428 -81 -24 -106 -27 -245 -28 -116 -1 -176 4 -240 18 -520 113 -1056 513
-1275 951 -85 169 -108 261 -109 425 0 156 13 220 74 345 115 238 349 421 584
455 105 15 104 16 120 -42z m37014 -633 c66 -93 118 -173 116 -176 -4 -7
-2041 -1423 -2052 -1426 -9 -3 -237 327 -237 343 0 13 2034 1434 2047 1431 4
-1 61 -78 126 -172z m-38171 -856 c85 -51 156 -95 158 -100 3 -4 -74 -139
-171 -301 -97 -161 -178 -298 -181 -304 -4 -10 553 -351 561 -343 2 2 79 129
171 282 91 152 168 277 170 277 4 0 287 -169 294 -176 2 -2 -69 -125 -158
-273 -88 -148 -164 -276 -167 -284 -4 -11 76 -64 306 -202 172 -103 315 -183
319 -179 5 5 92 150 195 322 103 172 190 311 194 308 234 -140 299 -180 309
-188 8 -6 -71 -147 -285 -504 -163 -271 -300 -494 -304 -494 -6 0 -2131 1273
-2146 1286 -5 3 571 964 578 964 2 0 73 -41 157 -91z m38608 -78 c227 -59 404
-203 510 -416 65 -131 80 -196 80 -345 0 -99 -5 -141 -23 -204 -103 -360 -437
-699 -927 -941 -173 -85 -273 -122 -441 -161 -102 -23 -141 -27 -269 -27 -179
0 -259 18 -405 90 -80 39 -109 60 -185 137 -291 293 -313 686 -62 1063 250
374 839 741 1312 818 121 19 304 13 410 -14z m1234 -1854 c55 -118 101 -217
101 -221 0 -3 -293 -319 -651 -702 -358 -383 -649 -698 -647 -700 2 -2 364
168 803 377 439 209 801 376 805 372 10 -11 150 -310 150 -321 0 -9 -2237
-1072 -2256 -1072 -13 0 -207 410 -200 424 3 6 292 322 644 701 351 380 636
691 633 693 -4 1 -362 -168 -796 -377 l-790 -379 -82 167 c-45 91 -82 171 -82
176 0 9 2231 1072 2255 1074 6 1 57 -95 113 -212z m-41018 -143 c90 -41 168
-79 173 -84 5 -5 -53 -141 -134 -314 -78 -169 -140 -311 -138 -316 3 -10 568
-277 595 -283 8 -1 65 109 143 278 72 154 134 283 138 287 7 7 304 -122 325
-141 4 -4 -51 -134 -123 -288 -71 -155 -130 -285 -130 -290 0 -5 217 -110 483
-233 265 -122 483 -224 485 -225 1 -1 -38 -90 -89 -197 l-90 -195 -352 163
c-1592 738 -1922 893 -1919 906 4 14 464 1008 467 1008 1 0 76 -34 166 -76z
m-84 -1714 c265 -45 566 -154 788 -285 251 -147 448 -346 535 -539 54 -120 73
-215 68 -350 -4 -106 -9 -134 -40 -223 -47 -138 -87 -202 -189 -304 -73 -74
-100 -94 -190 -138 -296 -146 -658 -145 -1104 4 -423 140 -738 351 -908 607
-103 154 -141 276 -140 448 0 95 5 131 27 205 96 320 311 512 652 579 109 22
360 20 501 -4z m41978 -805 c249 -66 432 -263 506 -545 33 -123 33 -305 0
-410 -29 -94 -57 -150 -75 -150 -26 0 -351 118 -349 127 1 4 14 37 29 73 72
174 20 383 -116 470 -96 61 -227 61 -356 -1 -112 -53 -173 -151 -208 -336 -8
-43 -24 -127 -36 -188 -44 -231 -104 -359 -225 -480 -63 -63 -99 -90 -166
-123 -243 -120 -506 -127 -729 -19 -86 41 -222 175 -275 270 -108 196 -140
447 -84 665 23 89 73 202 89 202 12 0 352 -110 359 -116 1 -1 -8 -27 -22 -56
-48 -101 -59 -161 -55 -282 3 -93 8 -120 29 -166 36 -78 71 -114 141 -149 168
-84 415 5 489 176 33 77 58 174 83 323 28 165 55 259 98 345 103 204 299 333
587 386 64 11 214 3 286 -16z m754 -1555 c47 -194 50 -216 36 -227 -9 -6 -232
-148 -495 -315 -264 -166 -476 -305 -472 -309 4 -3 252 -27 552 -53 300 -26
561 -50 580 -53 l36 -5 53 -214 c29 -118 52 -217 50 -219 -3 -2 -367 50 -809
116 -443 65 -819 119 -836 119 -18 0 -231 -49 -475 -110 -244 -60 -449 -110
-455 -110 -12 0 -116 398 -105 404 3 2 213 54 466 116 l460 113 674 489 c372
268 678 484 682 480 4 -4 30 -104 58 -222z m-42161 -631 c145 -34 173 -44 170
-58 -3 -9 -60 -250 -128 -536 -68 -286 -127 -524 -131 -529 -7 -8 -2416 560
-2432 574 -4 4 14 99 41 211 43 181 51 204 68 202 10 -1 473 -111 1028 -243
554 -133 1009 -240 1011 -238 1 2 38 153 81 336 73 310 80 333 99 328 11 -3
98 -24 193 -47z m42205 -1115 c224 -56 406 -228 481 -454 49 -149 58 -338 21
-481 -19 -75 -73 -191 -109 -234 l-25 -30 -163 84 c-90 46 -166 87 -170 90 -4
3 11 32 32 65 53 80 74 164 67 265 -8 125 -58 212 -156 269 -43 25 -54 27
-166 27 -105 0 -127 -3 -172 -24 -106 -48 -171 -148 -256 -396 -92 -267 -134
-343 -258 -459 -94 -88 -181 -135 -309 -165 -339 -81 -656 27 -819 279 -117
181 -156 446 -98 671 28 108 78 222 126 286 l31 43 174 -87 173 -86 -43 -67
c-65 -101 -94 -197 -94 -314 0 -116 23 -186 80 -245 70 -72 108 -86 240 -86
110 0 118 1 182 33 112 55 177 159 263 417 89 265 171 393 317 491 171 114
447 160 651 108z m-43676 -99 c669 -88 1128 -390 1229 -811 24 -99 21 -266 -5
-369 -89 -339 -358 -555 -786 -631 -148 -26 -426 -24 -614 5 -677 103 -1092
388 -1186 815 -14 61 -16 105 -12 195 7 139 24 206 82 327 119 246 380 414
732 468 122 19 415 20 560 1z m44272 -1390 c21 -177 126 -1312 122 -1317 -7
-8 -349 -43 -355 -37 -4 4 -46 418 -46 447 0 7 -14 12 -32 12 -18 0 -498 -45
-1067 -100 -569 -55 -1036 -99 -1037 -97 -3 3 -42 412 -40 414 2 2 479 49
1062 104 582 56 1062 105 1065 108 3 3 -4 107 -16 231 -13 124 -21 227 -18
230 5 5 319 39 343 36 9 -1 17 -14 19 -31z m-44364 -716 c562 -65 960 -312
1080 -672 94 -282 22 -592 -186 -798 -152 -151 -364 -249 -647 -301 -159 -29
-527 -31 -707 -4 -673 102 -1055 431 -1055 911 0 554 509 904 1280 879 80 -3
186 -10 235 -15z m44509 -1041 c8 -114 31 -1037 25 -1042 -2 -2 -87 -5 -189
-7 l-185 -4 -10 352 c-5 193 -12 353 -15 356 -4 4 -652 -13 -657 -17 -1 -1 3
-147 8 -325 6 -177 8 -325 4 -329 -4 -4 -82 -8 -175 -10 l-168 -3 -6 133 c-3
73 -9 222 -12 332 l-6 198 -82 -6 c-44 -3 -209 -9 -365 -12 l-284 -7 7 -266
c4 -146 9 -314 12 -372 6 -106 6 -106 -17 -112 -13 -3 -100 -7 -194 -8 l-170
-1 -2 49 c-6 131 -33 1106 -31 1108 3 3 2251 71 2414 74 l92 1 6 -82z m-43494
-1201 c0 -52 3 -148 6 -213 l7 -120 -551 -20 c-303 -11 -554 -22 -556 -25 -6
-6 22 -730 28 -737 3 -2 251 5 552 17 301 12 549 20 551 18 1 -2 6 -99 10
-215 l6 -212 -29 0 c-16 0 -579 -21 -1252 -46 -673 -25 -1225 -45 -1226 -43
-2 2 -7 99 -11 214 l-7 211 503 18 c277 10 506 20 508 22 2 2 -2 171 -9 374
l-13 371 -111 -6 c-206 -11 -899 -35 -903 -32 -3 4 -23 421 -20 423 3 3 2320
91 2420 93 l97 1 0 -93z m42310 -283 c663 -42 1210 -77 1215 -79 7 -2 4 -96
-8 -286 -10 -156 -19 -284 -20 -286 -1 -1 -412 -81 -912 -178 -501 -96 -919
-180 -930 -184 -20 -9 -20 -9 -1 -17 11 -4 415 -137 899 -295 483 -158 880
-289 881 -291 3 -4 -35 -592 -38 -596 -3 -2 -2500 159 -2504 163 -4 4 24 405
29 410 3 2 428 -25 945 -60 516 -36 948 -65 959 -64 11 0 -404 141 -923 314
-519 172 -945 315 -948 317 -4 5 15 330 19 334 1 1 442 84 980 185 538 101
974 185 969 187 -4 1 -437 29 -961 61 -523 32 -953 60 -955 62 -1 2 3 85 10
184 7 99 13 186 13 193 1 10 11 12 39 8 20 -3 579 -40 1242 -82z m-42429
-1495 c100 -65 201 -175 249 -272 62 -126 83 -218 84 -372 1 -148 -13 -214
-70 -334 -166 -353 -596 -595 -1174 -662 -151 -17 -456 -6 -582 20 -411 88
-676 303 -769 623 -33 114 -38 316 -10 432 27 111 89 232 158 307 l54 58 152
-96 c84 -52 156 -99 161 -103 5 -5 -13 -34 -39 -67 -27 -32 -60 -83 -74 -113
-23 -49 -26 -67 -26 -170 0 -106 2 -119 28 -173 59 -118 183 -206 365 -254 90
-25 113 -27 317 -27 244 -1 352 12 544 65 130 36 305 121 386 186 107 86 175
214 175 328 0 150 -76 275 -222 364 -21 12 -38 25 -38 28 0 11 244 273 255
273 7 0 41 -19 76 -41z m41457 -1059 c2 -4 -13 -17 -32 -29 -60 -38 -157 -150
-192 -225 -77 -163 -66 -304 33 -402 101 -102 304 -135 431 -70 69 35 178 143
277 276 135 179 220 259 341 319 95 47 176 65 294 65 391 -1 695 -221 766
-556 21 -98 14 -274 -15 -382 -44 -165 -139 -316 -256 -406 l-58 -45 -133 140
-134 140 33 25 c62 47 117 114 149 177 26 53 32 80 36 148 5 102 -13 166 -68
227 -93 107 -308 150 -431 88 -58 -30 -157 -126 -232 -225 -205 -270 -316
-363 -512 -425 -181 -58 -467 -9 -649 110 -191 124 -300 315 -313 545 -15 278
134 594 356 753 l44 32 131 -136 c72 -75 132 -140 134 -144z m-41343 -724
c241 -64 424 -248 497 -502 20 -68 23 -102 23 -239 0 -137 -3 -171 -23 -240
-24 -82 -88 -223 -119 -262 l-18 -22 -176 81 -176 81 38 59 c63 99 84 174 84
308 0 103 -3 121 -26 170 -30 64 -75 112 -131 141 -128 65 -341 28 -437 -76
-54 -58 -111 -183 -161 -349 -50 -167 -83 -257 -112 -305 -106 -174 -243 -275
-447 -328 -125 -33 -321 -37 -421 -10 -124 35 -207 84 -300 177 -91 91 -134
160 -175 279 -56 165 -60 381 -11 526 28 81 90 195 106 195 5 0 86 -37 179
-81 l170 -82 -30 -44 c-47 -68 -70 -143 -70 -232 0 -95 5 -120 44 -194 64
-121 182 -173 341 -147 190 30 262 115 355 420 51 166 72 224 110 298 135 267
391 409 716 398 61 -3 137 -12 170 -20z m40789 -1397 c64 -83 116 -152 114
-153 -2 -2 -31 -19 -64 -39 -86 -51 -179 -154 -222 -244 -98 -207 -15 -395
205 -463 71 -22 157 -26 214 -10 70 20 166 94 344 269 186 182 245 225 358
267 152 55 308 51 497 -12 244 -81 405 -233 476 -450 26 -80 29 -102 29 -214
-1 -152 -21 -235 -96 -389 -44 -90 -63 -116 -137 -190 -48 -48 -110 -99 -137
-113 l-51 -27 -112 149 c-62 83 -112 153 -112 157 0 5 23 22 51 38 61 36 129
107 158 163 26 52 51 145 51 192 0 151 -128 278 -312 310 -147 26 -228 -18
-453 -245 -165 -167 -225 -216 -330 -268 -109 -55 -183 -71 -310 -70 -333 2
-635 208 -736 501 -88 257 3 596 221 822 68 70 199 168 226 170 6 0 63 -68
128 -151z m-40212 -943 c307 -59 515 -286 589 -641 58 -281 -34 -527 -266
-710 -146 -116 -259 -161 -1139 -455 -445 -148 -812 -270 -815 -270 -3 0 -36
90 -73 201 -45 136 -63 202 -55 204 7 3 349 118 761 255 413 138 788 267 835
286 239 98 351 219 351 376 0 114 -57 231 -138 282 -93 58 -208 70 -372 36
-54 -11 -447 -137 -888 -284 l-791 -264 -66 199 c-37 110 -65 202 -64 203 2 2
375 128 829 280 881 295 948 314 1137 315 50 1 124 -5 165 -13z m40268 -671
c213 -38 487 -136 674 -241 146 -81 247 -156 357 -264 203 -200 303 -419 301
-660 -1 -114 -27 -220 -83 -338 -82 -176 -193 -295 -344 -367 -140 -67 -119
-77 -229 110 -53 90 -96 165 -96 168 0 2 26 14 58 25 123 45 216 138 263 261
16 45 20 73 17 142 -4 121 -50 213 -162 325 -239 240 -714 428 -1081 428 -142
0 -217 -15 -305 -59 -145 -73 -228 -218 -217 -375 5 -62 13 -90 51 -165 24
-49 42 -93 38 -97 -4 -4 -81 -34 -171 -67 -125 -47 -167 -58 -177 -50 -21 17
-70 107 -93 169 -69 185 -66 336 9 542 71 195 220 355 411 443 66 29 213 72
294 85 88 13 374 4 485 -15z m-39382 -962 c50 -115 94 -215 97 -224 4 -11
-123 -184 -414 -565 -232 -301 -419 -549 -417 -551 2 -3 252 105 555 238 303
133 553 240 556 237 3 -2 42 -90 88 -194 62 -138 81 -191 71 -196 -17 -11
-2265 -999 -2277 -1001 -9 -2 -182 381 -175 389 2 2 215 96 472 209 494 217
530 234 506 235 -8 1 -291 33 -629 73 l-615 72 -93 214 c-52 118 -92 217 -91
220 2 4 302 -40 667 -96 366 -57 670 -102 676 -99 6 2 216 283 466 625 249
341 457 621 460 621 4 0 47 -93 97 -207z m39107 -873 c611 -266 1114 -487
1119 -491 6 -5 -6 -44 -28 -96 -109 -250 -129 -293 -138 -293 -10 0 -2213 957
-2270 986 l-26 13 85 195 86 195 31 -13 c17 -7 531 -230 1141 -496z m-392
-815 c606 -305 1108 -559 1116 -564 10 -7 -42 -119 -239 -509 l-252 -501 -169
84 -169 85 160 320 160 320 -290 145 c-159 80 -293 145 -298 145 -4 0 -72
-130 -152 -290 -80 -159 -149 -290 -153 -290 -8 0 -264 129 -295 149 -10 6 20
76 132 299 80 161 146 294 146 297 0 6 -636 325 -649 325 -4 0 -83 -148 -175
-330 -92 -181 -169 -330 -172 -330 -4 0 -326 160 -332 165 -6 5 513 1035 521
1035 4 0 503 -250 1110 -555z m-37968 50 c63 -116 103 -200 99 -207 -5 -7
-174 -200 -376 -430 l-368 -417 51 -93 c28 -51 55 -97 59 -101 4 -5 211 103
460 239 249 135 460 249 469 251 13 3 40 -37 114 -174 l96 -177 -27 -17 c-15
-9 -488 -267 -1052 -574 -564 -307 -1048 -571 -1075 -586 l-51 -29 -191 353
c-223 409 -253 484 -261 644 -4 90 -2 112 21 186 57 180 192 325 404 431 97
49 180 74 273 85 149 17 281 -13 392 -90 l62 -42 20 26 c36 44 771 916 773
917 1 0 49 -88 108 -195z m37278 -1402 c573 -350 1050 -641 1059 -648 16 -10
5 -32 -108 -216 -68 -112 -128 -205 -133 -207 -5 -2 -426 69 -937 158 -510 88
-931 159 -936 158 -5 -2 326 -207 734 -456 409 -249 749 -456 757 -461 12 -8
-4 -40 -80 -165 -52 -86 -97 -156 -102 -156 -7 0 -2115 1286 -2130 1300 -5 4
46 97 113 207 l122 200 941 -158 c518 -87 942 -157 944 -156 1 2 -336 208
-750 459 -459 279 -752 462 -751 470 1 8 43 83 94 167 66 107 97 150 108 146
8 -3 483 -292 1055 -642z m-36425 -315 c119 -36 200 -85 293 -178 127 -125
214 -269 255 -421 23 -86 23 -242 0 -329 -42 -153 -147 -309 -297 -440 -50
-43 -376 -267 -799 -549 -393 -263 -721 -481 -728 -485 -8 -5 -48 48 -127 168
-63 97 -115 178 -115 181 0 3 316 216 703 474 386 258 729 492 761 521 78 69
131 133 164 200 38 78 38 182 0 260 -39 80 -90 135 -156 167 -48 24 -69 28
-137 28 -95 -1 -155 -19 -280 -84 -49 -26 -399 -252 -777 -503 l-686 -456
-117 175 c-64 97 -113 179 -108 183 36 35 1439 955 1512 992 107 54 248 103
343 117 86 13 216 4 296 -21z m34717 -1021 c201 -51 390 -136 580 -262 295
-196 517 -434 645 -690 81 -162 112 -281 112 -435 0 -224 -70 -392 -236 -568
-85 -90 -181 -154 -285 -192 -81 -30 -248 -57 -261 -43 -4 4 -27 89 -52 189
l-45 180 86 12 c155 21 278 106 341 236 57 119 47 248 -34 411 -137 278 -538
602 -899 728 -86 30 -101 32 -232 32 -139 0 -141 0 -207 -33 -78 -38 -144
-106 -185 -190 -25 -52 -28 -67 -28 -162 0 -61 6 -121 14 -143 7 -21 11 -41 8
-43 -3 -3 -85 -11 -183 -18 -152 -11 -181 -11 -190 1 -26 31 -47 178 -42 289
6 130 33 217 105 336 123 204 298 331 528 382 106 24 330 15 460 -17z m-33391
-662 c98 -124 123 -162 113 -171 -6 -6 -383 -303 -837 -659 -454 -356 -826
-651 -828 -656 -2 -4 60 -88 137 -186 77 -98 140 -181 138 -186 -1 -4 -65 -56
-141 -116 l-140 -109 -80 102 c-590 750 -751 958 -751 966 0 6 62 60 139 120
l138 109 81 -102 c44 -56 109 -139 145 -184 36 -45 68 -81 71 -79 3 2 382 299
841 660 459 361 838 655 842 654 4 -2 63 -75 132 -163z m32951 -1164 c512
-441 931 -806 933 -811 2 -6 -630 -750 -714 -839 -10 -12 -35 5 -153 105 -77
65 -140 123 -140 128 -1 4 92 116 207 248 114 132 217 253 229 268 l23 28
-251 216 -250 216 -216 -250 c-191 -222 -217 -249 -232 -237 -9 7 -65 55 -126
107 -60 51 -113 96 -118 100 -4 3 90 118 208 255 118 137 215 252 214 255 -1
11 -547 473 -555 469 -5 -2 -112 -123 -238 -269 -125 -146 -233 -270 -240
-277 -8 -9 -44 16 -151 109 -77 67 -140 125 -140 131 0 5 168 204 374 443 331
384 376 432 390 420 9 -7 435 -374 946 -815z m-21623 -6087 c299 -80 544 -147
545 -148 2 -2 -94 -357 -99 -361 -1 -2 -160 39 -352 91 -192 51 -351 92 -353
90 -2 -2 -42 -144 -89 -317 -56 -207 -81 -315 -74 -319 6 -4 151 -44 323 -90
172 -46 314 -85 316 -87 8 -6 -84 -333 -94 -333 -6 0 -152 38 -325 85 -173 46
-318 81 -321 77 -13 -13 -191 -693 -184 -700 3 -4 168 -50 367 -104 198 -53
361 -98 363 -100 4 -3 -91 -357 -97 -363 -3 -3 -1138 301 -1143 307 -3 3 223
847 625 2336 14 50 27 82 35 82 8 0 258 -66 557 -146z m10938 -40 c106 -25
203 -77 283 -154 121 -114 185 -251 208 -443 10 -76 9 -107 -4 -182 -27 -151
-90 -253 -212 -342 l-30 -22 40 -1 c56 0 149 -25 215 -58 70 -34 185 -144 229
-217 77 -128 118 -300 108 -463 -21 -369 -281 -625 -692 -682 -228 -32 -437
29 -589 171 -80 74 -172 199 -163 221 3 7 80 53 173 102 l167 89 21 -29 c43
-60 96 -110 152 -144 56 -34 62 -35 159 -35 83 0 109 4 152 24 62 28 136 103
166 169 29 65 35 196 13 282 -35 138 -91 219 -188 270 -56 31 -73 35 -158 38
-71 3 -116 -1 -178 -16 -59 -14 -85 -16 -87 -8 -8 21 -75 295 -75 304 0 4 33
16 73 25 153 37 246 106 287 215 19 48 21 71 17 152 -5 110 -29 181 -86 256
-49 65 -141 114 -215 114 -71 0 -143 -23 -188 -60 -42 -34 -102 -147 -113
-209 l-7 -41 -56 0 c-32 0 -121 3 -199 7 l-141 6 5 36 c45 320 266 554 593
627 79 17 243 17 320 -2z m-9330 -263 c128 -33 272 -107 353 -181 63 -58 127
-137 127 -158 0 -10 -263 -240 -282 -247 -7 -3 -28 18 -47 46 -42 62 -90 100
-178 142 -63 29 -76 32 -168 32 -92 0 -104 -2 -153 -29 -114 -63 -183 -213
-169 -365 10 -112 80 -200 292 -369 219 -174 316 -293 370 -456 85 -254 -2
-585 -205 -785 -125 -124 -263 -181 -451 -189 -265 -10 -511 88 -699 278 -47
47 -93 100 -102 116 l-17 31 146 131 147 131 32 -48 c43 -64 141 -152 212
-189 229 -122 444 -51 513 168 36 116 26 227 -29 314 -35 56 -153 171 -252
246 -239 180 -345 331 -380 539 -18 108 1 266 49 404 80 231 267 399 506 453
88 20 278 13 385 -15z m7595 -76 c76 -8 197 -52 265 -95 121 -79 210 -193 254
-328 65 -197 59 -360 -19 -519 -27 -54 -54 -89 -115 -146 l-79 -75 45 -11
c123 -31 271 -139 341 -249 73 -113 115 -275 114 -442 -1 -409 -301 -696 -760
-726 -302 -20 -560 123 -686 380 -82 166 -114 371 -81 526 30 144 132 297 246
371 49 32 56 49 21 49 -10 0 -55 18 -99 40 -137 69 -229 185 -284 360 -19 63
-23 97 -23 205 0 116 3 139 29 219 82 250 315 415 626 445 83 8 104 7 205 -4z
m-6285 -176 c371 -44 678 -84 682 -87 3 -4 -3 -86 -15 -182 l-22 -175 -30 2
c-16 2 -124 14 -239 28 -115 13 -210 24 -211 22 -1 -1 -58 -479 -128 -1061
-70 -583 -128 -1061 -130 -1063 -4 -3 -419 46 -424 51 -1 1 55 480 125 1064
70 584 128 1062 127 1062 0 1 -105 14 -233 29 -128 16 -235 31 -239 34 -5 5
20 245 34 325 3 17 10 32 17 32 6 0 315 -36 686 -81z m4590 -43 c300 -55 499
-252 587 -581 24 -91 26 -117 27 -290 1 -296 -15 -350 -334 -1112 -126 -300
-231 -547 -233 -549 -6 -6 -468 -47 -472 -42 -3 2 95 224 216 493 272 604 246
539 203 510 -67 -46 -129 -60 -259 -60 -105 0 -130 4 -202 28 -254 87 -413
322 -454 668 -51 443 152 798 519 909 134 41 271 49 402 26z m-1330 -238 c1
-73 9 -637 19 -1253 11 -616 18 -1121 17 -1122 -1 -1 -97 -5 -213 -9 l-211 -7
-6 159 c-3 87 -11 539 -17 1004 -7 465 -13 846 -15 848 -1 2 -93 -65 -204
-150 -110 -84 -206 -153 -212 -153 -6 0 -55 72 -109 159 l-98 159 323 243
c368 276 308 249 569 252 l157 2 0 -132z m-2469 -1830 c95 -28 169 -135 169
-244 0 -79 -22 -139 -68 -188 -78 -82 -194 -102 -297 -51 -187 91 -175 388 20
476 46 21 120 24 176 7z"/>
<path d="M37635 45576 c-189 -60 -395 -258 -579 -555 -198 -320 -285 -610
-242 -810 25 -121 72 -182 180 -239 44 -23 63 -27 141 -27 85 0 95 2 175 41
162 78 306 218 459 445 225 333 327 626 299 858 -16 134 -78 224 -192 277 -59
27 -171 32 -241 10z"/>
<path d="M25380 45330 c-2594 -105 -5025 -687 -7340 -1757 -266 -123 -842
-413 -1090 -549 -1776 -971 -3346 -2174 -4729 -3624 -1931 -2026 -3391 -4437
-4286 -7080 -693 -2050 -1028 -4171 -1002 -6360 8 -634 29 -1049 83 -1610 284
-2968 1234 -5783 2803 -8295 2091 -3350 5137 -5962 8761 -7512 1972 -843 4065
-1342 6240 -1487 805 -54 1722 -54 2545 0 2893 188 5696 1029 8205 2462 1271
726 2390 1544 3505 2561 235 215 905 886 1121 1121 999 1096 1825 2223 2533
3457 1799 3139 2667 6717 2510 10343 -116 2699 -779 5285 -1970 7685 -1327
2675 -3263 5006 -5654 6807 -588 443 -1280 903 -1895 1260 -2233 1296 -4649
2114 -7200 2437 -450 57 -959 102 -1490 132 -249 13 -1381 20 -1650 9z m-2750
-12870 l0 -210 -270 0 -270 0 0 -825 0 -825 -295 0 -295 0 0 825 0 825 -272 2
-273 3 -3 208 -2 207 840 0 840 0 0 -210z m4450 -262 l0 -471 322 471 322 472
294 0 294 0 -18 -27 c-9 -16 -149 -217 -309 -448 -160 -231 -304 -439 -319
-461 l-27 -42 360 -546 360 -546 -327 0 -327 0 -312 472 -313 471 0 -472 0
-471 -295 0 -295 0 0 1035 0 1035 295 0 295 0 0 -472z m3086 99 c100 -205 185
-371 189 -370 5 1 88 167 185 370 l177 368 267 3 c146 1 266 0 266 -3 0 -3
-144 -284 -320 -625 l-320 -619 0 -411 0 -410 -295 0 -295 0 0 406 0 406 -325
623 c-179 343 -325 626 -325 629 0 3 138 6 308 6 l307 -1 181 -372z m-5954
-670 c3 -625 0 -596 71 -634 50 -27 192 -24 285 6 l72 24 0 584 0 583 263 -2
262 -3 3 -792 2 -793 -235 0 -234 0 -10 38 c-6 21 -14 52 -17 70 -4 18 -8 32
-10 32 -2 0 -30 -17 -62 -39 -129 -87 -230 -120 -392 -128 -197 -9 -327 32
-418 132 -59 65 -89 138 -102 255 -11 95 -14 1213 -3 1223 3 4 122 7 264 7
l258 0 3 -563z m-9320 -1927 c801 -42 1465 -298 2065 -795 130 -107 391 -366
494 -490 464 -554 718 -1157 800 -1895 17 -149 17 -611 0 -760 -66 -591 -241
-1090 -545 -1550 -300 -454 -743 -881 -1188 -1146 -413 -245 -817 -384 -1348
-461 -106 -16 -397 -17 -3597 -20 l-3483 -3 0 3565 0 3565 3313 0 c1939 0
3386 -4 3489 -10z m9517 -200 c409 -714 1382 -2412 2128 -3715 479 -836 1088
-1898 1352 -2360 l481 -840 -3561 -3 c-1959 -1 -3564 0 -3566 2 -2 2 259 460
579 1017 l583 1014 1202 3 1202 2 -505 883 c-278 485 -669 1167 -867 1514
-199 348 -364 633 -367 633 -3 0 -264 -451 -580 -1002 -315 -552 -750 -1311
-966 -1688 -216 -377 -610 -1065 -876 -1530 l-484 -845 -1197 -3 c-658 -1
-1197 0 -1197 2 0 4 54 99 1212 2121 365 638 1154 2015 1752 3060 599 1045
1095 1910 1102 1923 l15 22 1220 -2 1221 -3 117 -205z m11071 -810 l0 -1020
-1780 0 -1780 0 0 -2545 0 -2545 -1020 0 -1020 0 0 2545 0 2545 -1780 0 -1780
0 0 1020 0 1020 4580 0 4580 0 0 -1020z m6471 -2545 l2039 -3560 -3561 -3
c-1959 -1 -3564 0 -3566 2 -2 2 259 460 579 1017 l583 1014 1202 3 1202 2
-526 918 c-289 504 -679 1186 -867 1514 -187 329 -343 598 -346 598 -3 0 -121
-201 -262 -447 -141 -247 -541 -945 -889 -1553 -348 -608 -885 -1546 -1194
-2085 l-560 -980 -1198 -3 c-658 -1 -1197 0 -1197 2 0 4 1056 1849 2175 3801
227 396 724 1265 1105 1930 381 666 717 1252 747 1303 l54 92 1220 -2 1221 -3
2039 -3560z"/>
<path d="M10130 26145 l0 -1525 2358 0 c2562 0 2444 -2 2643 55 411 118 768
426 959 828 96 201 134 382 134 637 0 306 -62 539 -205 777 -231 382 -602 640
-1049 730 -78 15 -273 17 -2462 20 l-2378 4 0 -1526z"/>
<path d="M39212 44278 c-103 -139 -206 -278 -229 -309 l-41 -56 102 -76 c131
-97 177 -123 247 -136 119 -21 214 14 311 117 34 37 79 96 97 132 30 56 36 77
39 150 7 140 -31 198 -219 341 l-119 90 -188 -253z"/>
<path d="M12013 43900 c-212 -44 -306 -245 -238 -510 71 -279 412 -730 692
-917 235 -156 429 -170 569 -41 72 67 97 124 102 239 5 124 -19 223 -91 373
-154 318 -457 654 -712 788 -114 59 -237 85 -322 68z"/>
<path d="M42438 40907 c-295 -167 -540 -306 -544 -309 -5 -6 340 -400 355
-405 3 -1 115 148 248 330 133 183 301 412 373 510 71 97 124 177 117 176 -6
0 -254 -136 -549 -302z"/>
<path d="M8903 40881 c-65 -22 -114 -59 -154 -118 -81 -117 -79 -251 7 -430
146 -305 589 -687 934 -804 83 -29 109 -33 200 -33 123 -1 169 15 245 85 156
144 136 379 -56 640 -34 46 -116 138 -183 204 -357 355 -756 538 -993 456z"/>
<path d="M45103 37955 c-240 -43 -581 -220 -833 -431 -198 -166 -300 -335
-300 -497 0 -62 5 -83 30 -134 121 -242 449 -254 884 -34 377 190 657 450 723
671 23 77 21 174 -5 232 -74 167 -255 237 -499 193z"/>
<path d="M5125 34235 c-131 -23 -230 -85 -278 -174 -129 -237 42 -499 458
-701 284 -138 555 -210 789 -210 231 0 368 66 435 209 21 46 26 71 26 136 0
73 -4 88 -38 157 -107 217 -462 436 -882 543 -211 54 -368 66 -510 40z"/>
<path d="M4145 30016 c-196 -31 -349 -119 -409 -234 -25 -48 -37 -143 -26
-201 47 -248 407 -442 929 -502 142 -16 435 -7 521 16 186 50 308 146 341 269
16 58 13 153 -6 205 -37 105 -143 205 -305 286 -269 135 -743 208 -1045 161z"/>
<path d="M4035 27909 c-261 -33 -474 -149 -535 -292 -34 -78 -32 -188 5 -262
84 -174 317 -292 666 -339 350 -48 683 -18 887 79 92 44 182 127 213 198 35
79 33 193 -4 269 -109 223 -491 360 -990 357 -95 -1 -203 -5 -242 -10z"/>
<path d="M6474 15907 c-66 -22 -163 -78 -215 -124 -84 -76 -123 -191 -99 -295
11 -50 148 -328 161 -328 8 0 651 350 663 361 10 9 -92 204 -144 274 -22 29
-62 64 -95 84 -52 32 -66 35 -144 38 -52 2 -102 -2 -127 -10z"/>
<path d="M30247 5574 c-109 -34 -177 -153 -177 -308 1 -317 246 -531 451 -393
85 57 131 162 130 300 0 98 -13 161 -48 235 -72 152 -203 213 -356 166z"/>
<path d="M30437 4506 c-59 -16 -112 -57 -154 -120 -46 -68 -63 -133 -63 -246
0 -207 80 -382 208 -458 41 -24 57 -27 132 -27 139 0 223 51 275 167 39 86 50
180 36 285 -42 297 -216 457 -434 399z"/>
<path d="M28542 5332 c-99 -36 -172 -119 -210 -242 -24 -77 -23 -309 1 -400
36 -135 103 -239 184 -287 37 -22 62 -28 128 -31 103 -5 166 13 228 68 229
202 173 754 -90 881 -64 31 -171 36 -241 11z"/>
</g>
</svg>
