<svg width="1000" height="5000" xmlns="http://www.w3.org/2000/svg" version="1.1">
 <defs>
  <filter id="svg_1_blur" x="-50%" y="-50%" width="200%" height="200%">
   <feGaussianBlur in="SourceGraphic" stdDeviation="10"/>
  </filter>
 </defs>
 <g>
  <title>Layer 1</title>
  <path stroke="#D96CEC" d="m551.04101,4809.80996l-23.71229,-47.77958c-23.71532,-47.77958 -71.14292,-143.35969 -77.81475,-239.11788c-6.6688,-95.64296 27.42122,-191.58972 89.37521,-287.24316c62.09956,-95.74772 151.92057,-191.31735 208.24294,-287.08603c56.31933,-95.63249 79.14305,-191.57924 20.74635,-287.25364c-58.2481,-95.72677 -197.57105,-191.29641 -212.0944,-287.04412c-14.67499,-95.66392 95.59821,-191.6002 144.95458,-287.27458c49.35637,-95.72677 38.09008,-191.29641 -2.22293,-287.0546c-40.31301,-95.67439 -109.3816,-191.6002 -108.19583,-287.24316c1.18577,-95.75819 72.92006,-191.32783 59.72803,-287.07555c-13.04343,-95.68487 -110.86153,-191.6002 -198.75681,-287.25364c-88.03478,-95.74772 -165.99813,-191.31735 -145.24875,-287.06507c20.74939,-95.66392 140.21151,-191.61068 218.61763,-287.25364c78.25752,-95.76867 115.3074,-191.32783 145.98871,-287.07555c30.53575,-95.66392 54.84243,-191.6002 -2.8143,-287.25049c-57.50813,-95.75086 -196.82805,-191.31945 -264.71087,-287.06927c-68.03143,-95.65972 -64.47109,-191.59496 -62.84256,-239.46987l1.77713,-47.96709" fill="none" stroke-linecap="round" stroke-width="99" id="svg_1" opacity="0.25" filter="url(#svg_1_blur)"/>
 </g>
</svg>